<?xml version="1.0" encoding="UTF-8" standalone="no"?>
<!-- Created with Inkscape (http://www.inkscape.org/) -->

<svg
   xmlns:dc="http://purl.org/dc/elements/1.1/"
   xmlns:cc="http://creativecommons.org/ns#"
   xmlns:rdf="http://www.w3.org/1999/02/22-rdf-syntax-ns#"
   xmlns:svg="http://www.w3.org/2000/svg"
   xmlns="http://www.w3.org/2000/svg"
   xmlns:sodipodi="http://sodipodi.sourceforge.net/DTD/sodipodi-0.dtd"
   xmlns:inkscape="http://www.inkscape.org/namespaces/inkscape"
   width="55.502823"
   height="55.489918"
   viewBox="0 0 52.033895 52.0218"
   id="svg2"
   version="1.1"
   inkscape:version="0.92.2 5c3e80d, 2017-08-06"
   sodipodi:docname="iec_logo.svg">
  <defs
     id="defs4" />
  <sodipodi:namedview
     id="base"
     pagecolor="#ffffff"
     bordercolor="#666666"
     borderopacity="1.0"
     inkscape:pageopacity="0.0"
     inkscape:pageshadow="2"
     inkscape:zoom="5.6"
     inkscape:cx="-13.946552"
     inkscape:cy="19.955951"
     inkscape:document-units="px"
     inkscape:current-layer="layer1"
     showgrid="false"
     inkscape:window-width="1920"
     inkscape:window-height="1051"
     inkscape:window-x="1920"
     inkscape:window-y="0"
     inkscape:window-maximized="1"
     fit-margin-top="0"
     fit-margin-left="0"
     fit-margin-right="0"
     fit-margin-bottom="0"
     showborder="true"
     units="px" />
  <metadata
     id="metadata7">
    <rdf:RDF>
      <cc:Work
         rdf:about="">
        <dc:format>image/svg+xml</dc:format>
        <dc:type
           rdf:resource="http://purl.org/dc/dcmitype/StillImage" />
        <dc:title></dc:title>
      </cc:Work>
    </rdf:RDF>
  </metadata>
  <g
     inkscape:label="Layer 1"
     inkscape:groupmode="layer"
     id="layer1"
     transform="translate(-507.54037,-120.81668)">
    <path
       style="fill:#0064aa;fill-opacity:1"
       d="m 510.25252,172.78603 c -0.5453,-0.10798 -1.29503,-0.52886 -1.72811,-0.97013 -0.45257,-0.46113 -0.81794,-1.15245 -0.92995,-1.7596 -0.048,-0.2604 -0.0637,-4.30775 -0.0485,-12.53378 0.0223,-12.03806 0.0239,-12.15854 0.17001,-13.17097 0.4677,-3.23993 1.13855,-5.82642 2.16924,-8.36371 2.32689,-5.72817 5.99263,-9.88022 10.95966,-12.41363 3.02941,-1.54513 6.48212,-2.42399 10.55719,-2.68723 0.68849,-0.0445 6.06707,-0.0703 14.63048,-0.0703 h 13.54173 l -0.0223,13.811 -0.0223,13.81101 -0.15076,1.05583 c -0.31247,2.18856 -0.6026,3.57147 -1.1323,5.3973 -1.75788,6.05919 -5.09002,10.8484 -9.67837,13.9105 -3.24939,2.16853 -7.02548,3.42432 -11.81769,3.93013 -0.95226,0.10051 -26.00524,0.15119 -26.49805,0.0536 z m 30.51705,-8.32521 c 3.80388,-0.49778 6.76382,-1.52918 9.33221,-3.25184 4.44443,-2.98096 7.47542,-7.94149 8.67697,-14.20081 0.27852,-1.45091 0.26429,-1.5613 -0.0527,-0.40871 -1.42306,5.1746 -4.07034,9.03784 -7.87498,11.49214 -2.23793,1.44365 -4.77446,2.33045 -7.98797,2.79267 -1.02898,0.14801 -1.1325,0.14946 -12.29628,0.17211 l -11.25857,0.0228 0.0224,-10.81608 c 0.0222,-10.74579 0.0233,-10.82204 0.17129,-11.73113 0.6273,-3.85384 1.80985,-7.07261 3.56789,-9.71138 0.78625,-1.18014 1.36092,-1.88477 2.3083,-2.83034 2.1335,-2.12941 4.78624,-3.61644 7.96656,-4.46577 0.76186,-0.20346 0.58878,-0.20088 -0.61478,0.009 -4.20065,0.73312 -7.69377,2.4857 -10.45311,5.24455 -3.02586,3.02533 -5.10372,7.21702 -6.06054,12.22603 -0.43037,2.25302 -0.40217,1.32733 -0.42709,14.01785 l -0.0228,11.59964 12.07587,-0.0247 c 10.69229,-0.0219 12.17342,-0.0375 12.92734,-0.13617 z m 4.30281,-6.94316 c 1.32491,-0.43503 2.24857,-1.23082 2.8732,-2.47544 0.2668,-0.53163 0.56266,-1.37392 0.50339,-1.43318 -0.0534,-0.0534 -1.569,-0.44076 -1.6365,-0.41826 -0.0305,0.0102 -0.13814,0.26456 -0.23926,0.56534 -0.54947,1.63423 -1.68484,2.48409 -3.31461,2.48109 -1.87423,-0.003 -3.13052,-1.02039 -3.65932,-2.96215 -0.1284,-0.47147 -0.14862,-0.72404 -0.15,-1.87325 -0.002,-1.16589 0.0169,-1.39495 0.14954,-1.87326 0.34397,-1.24028 0.93751,-2.06491 1.82509,-2.53571 1.01709,-0.53948 2.60606,-0.5781 3.56918,-0.0867 0.5974,0.30477 1.15101,0.99002 1.43987,1.78222 0.0797,0.21861 0.1638,0.39617 0.18688,0.39458 0.0231,-0.002 0.39448,-0.0877 0.82533,-0.19145 0.77536,-0.18664 0.78322,-0.1905 0.76954,-0.37906 -0.008,-0.10477 -0.15582,-0.48238 -0.32937,-0.83912 -0.2592,-0.53282 -0.41484,-0.74839 -0.87171,-1.20737 -0.61697,-0.61981 -1.03956,-0.88727 -1.85043,-1.17114 -0.51615,-0.1807 -0.60794,-0.19083 -1.73702,-0.19186 -1.39998,-0.002 -1.7034,0.0626 -2.78535,0.58657 -0.60879,0.2948 -0.79069,0.42525 -1.30092,0.9329 -0.32625,0.32459 -0.70057,0.77561 -0.83182,1.00227 -1.10702,1.91167 -1.2232,4.6184 -0.29586,6.89299 0.71135,1.7448 2.0276,2.82566 3.84006,3.15333 0.17494,0.0316 0.80851,0.0487 1.40795,0.0378 0.94787,-0.0171 1.15795,-0.042 1.61214,-0.19113 z m -20.31064,-6.11585 c 0,-4.85805 -0.0177,-6.13107 -0.0851,-6.13265 -0.84272,-0.0197 -1.5497,-0.006 -1.60982,0.0311 -0.0841,0.052 -0.11446,12.10302 -0.0307,12.18677 0.025,0.025 0.42347,0.0454 0.88555,0.0454 h 0.84012 v -6.13066 z m 11.58013,5.38135 c 0,-0.41211 -0.023,-0.74983 -0.0511,-0.75046 -0.0281,-5.3e-4 -1.70636,-0.008 -3.72948,-0.017 l -3.6784,-0.0159 -0.0181,-2.02653 -0.018,-2.02652 h 3.37287 3.37288 v -0.7493 c 0,-0.55422 -0.0222,-0.74921 -0.0851,-0.74896 -0.0468,1.9e-4 -1.56417,-0.003 -3.37186,-0.006 l -3.28671,-0.007 v -1.8323 -1.8323 l 3.59324,-0.0176 3.59325,-0.0176 0.0221,-0.66812 c 0.0124,-0.37559 -0.007,-0.70367 -0.0453,-0.7493 -0.0514,-0.0619 -1.11367,-0.0731 -4.48383,-0.0471 l -4.41648,0.0341 -0.0176,6.02847 c -0.01,3.31567 -0.003,6.0668 0.0149,6.11364 0.0255,0.0669 1.01523,0.0851 4.6326,0.0851 h 4.60013 v -0.7493 z"
       id="path4147"
       inkscape:connector-curvature="0" />
    <g
       id="g4139"
       style="fill:none;stroke:none"
       transform="matrix(0.52721081,0,0,0.52721081,274.83001,51.879022)">
      <g
         id="g4136"
         style="fill:none;stroke:none">
        <rect
           style="opacity:0.98999999;fill:none;fill-opacity:1;stroke:none;stroke-width:0.60000002;stroke-miterlimit:4;stroke-dasharray:none;stroke-dashoffset:0;stroke-opacity:1"
           id="rect4134"
           width="179.30208"
           height="148.49242"
           x="401.99295"
           y="109.72971" />
      </g>
    </g>
  </g>
</svg>
