<?xml version="1.0" encoding="UTF-8" standalone="no"?>
<!-- Created with Inkscape (http://www.inkscape.org/) -->

<svg
   xmlns:dc="http://purl.org/dc/elements/1.1/"
   xmlns:cc="http://creativecommons.org/ns#"
   xmlns:rdf="http://www.w3.org/1999/02/22-rdf-syntax-ns#"
   xmlns:svg="http://www.w3.org/2000/svg"
   xmlns="http://www.w3.org/2000/svg"
   xmlns:sodipodi="http://sodipodi.sourceforge.net/DTD/sodipodi-0.dtd"
   xmlns:inkscape="http://www.inkscape.org/namespaces/inkscape"
   version="1.1"
   id="svg2"
   xml:space="preserve"
   width="55.48"
   height="55.172089"
   viewBox="0 0 55.479999 55.172089"
   sodipodi:docname="tuf_logo1.svg"
   inkscape:version="0.92.2 5c3e80d, 2017-08-06"><metadata
     id="metadata8"><rdf:RDF><cc:Work
         rdf:about=""><dc:format>image/svg+xml</dc:format><dc:type
           rdf:resource="http://purl.org/dc/dcmitype/StillImage" /><dc:title></dc:title></cc:Work></rdf:RDF></metadata><defs
     id="defs6"><clipPath
       clipPathUnits="userSpaceOnUse"
       id="clipPath18"><path
         d="M 0,595.28 H 841.89 V 0 H 0 Z"
         id="path16"
         inkscape:connector-curvature="0" /></clipPath></defs><sodipodi:namedview
     pagecolor="#ffffff"
     bordercolor="#666666"
     borderopacity="1"
     objecttolerance="10"
     gridtolerance="10"
     guidetolerance="10"
     inkscape:pageopacity="0"
     inkscape:pageshadow="2"
     inkscape:window-width="1920"
     inkscape:window-height="1013"
     id="namedview4"
     showgrid="false"
     fit-margin-top="0"
     fit-margin-left="0"
     fit-margin-right="0"
     fit-margin-bottom="0"
     inkscape:zoom="13.45603"
     inkscape:cx="20.041521"
     inkscape:cy="23.318251"
     inkscape:window-x="0"
     inkscape:window-y="0"
     inkscape:window-maximized="1"
     inkscape:current-layer="g10" /><g
     id="g10"
     inkscape:groupmode="layer"
     inkscape:label="TUBAF_Logo_orig_CMYK"
     transform="matrix(1.3333333,0,0,-1.3333333,-333.22293,225.25409)"><g
       id="g12"
       transform="matrix(0.12164693,0,0,0.12164693,219.51554,112.04404)"><g
         id="g14"
         clip-path="url(#clipPath18)"><g
           id="g20"
           transform="translate(304.9795,200.834)"><path
             d="m 0,0 9.161,7.795 5.78,-6.796 c 0.525,-0.615 1.045,-1.163 2.022,-1.992 l 2.586,-2.228 1.453,1.239 L 11.477,9.216 6.421,13.979 4.832,12.628 5.116,12.412 C 5.273,12.29 5.369,12.178 5.474,12.057 5.85,11.61 6.016,11.24 5.972,11.011 L 5.949,10.94 C 5.887,10.757 5.856,10.664 4.037,9.117 l -21.109,-17.955 0.504,-0.591 3.95,-3.693 1.607,1.372 -0.317,0.212 c -0.11,0.069 -0.199,0.174 -0.381,0.39 -0.264,0.304 -0.351,0.622 -0.243,0.876 0.077,0.168 0.08,0.173 1.77,1.612 l 8.131,6.921 5.561,-6.541 0.195,-0.23 c 0.386,-0.465 0.563,-0.676 1.821,-1.758 l 2.51,-2.296 1.535,1.301 z"
             style="fill:#006ab2;fill-opacity:1;fill-rule:nonzero;stroke:none"
             id="path22"
             inkscape:connector-curvature="0" /></g><g
           id="g24"
           transform="translate(343.0132,174.7324)"><path
             d="m 0,0 c -1.865,-2.391 -4.523,-3.146 -7.901,-2.26 -1.298,0.839 -1.971,1.36 -3.213,2.329 l -2.867,2.237 7.766,9.957 c 0.569,-0.423 1.028,-0.765 1.425,-1.056 0.736,-0.54 1.262,-0.924 1.9,-1.421 C 1.514,6.351 2.457,3.149 0,0 m -0.178,10.948 c -1.439,1.125 -3.23,2.406 -4.788,3.423 l -5.184,3.395 -1.306,-1.675 0.678,-0.529 c 0.545,-0.427 0.73,-0.746 0.716,-0.933 -0.025,-0.216 -0.04,-0.315 -1.535,-2.233 l -17.072,-21.894 0.614,-0.473 4.615,-2.812 1.24,1.589 -0.719,0.561 c -0.319,0.245 -0.467,0.541 -0.413,0.812 0.042,0.177 0.042,0.187 1.454,1.997 l 6.336,8.124 1.655,-1.29 c 2.117,-1.65 2.19,-2.175 2.113,-5.78 l -0.92,-15.182 0.735,-0.568 4.297,-2.564 1.24,1.584 -0.677,0.53 c -0.743,0.582 -1.128,1.2 -1.029,2.826 l 0.492,12.184 c 0.071,1.801 0.035,2.662 -0.199,3.459 1.744,-0.76 3.429,-1.144 5.015,-1.144 2.698,0 5.005,1.13 6.669,3.262 3.278,4.205 1.926,8.696 -4.027,13.331"
             style="fill:#006ab2;fill-opacity:1;fill-rule:nonzero;stroke:none"
             id="path26"
             inkscape:connector-curvature="0" /></g><g
           id="g28"
           transform="translate(363.3643,172.749)"><path
             d="m 0,0 -0.757,-1.946 0.351,-0.057 c 0.199,-0.032 0.34,-0.088 0.488,-0.144 0.539,-0.21 0.864,-0.458 0.933,-0.685 L 1.029,-2.901 C 1.062,-3.094 1.078,-3.188 0.213,-5.414 L -9.629,-30.751 -9.734,-31.018 3.094,-36 c 0.623,-0.239 1.42,-0.47 2.674,-0.773 l 3.333,-0.727 0.691,1.781 -14.515,5.64 4.744,12.22 7.998,-3.104 c 0.632,-0.248 1.494,-0.501 2.73,-0.797 l 3.333,-0.725 0.688,1.775 -13.773,5.353 4.356,11.217 8.364,-3.248 c 0.76,-0.299 1.485,-0.534 2.728,-0.797 l 3.333,-0.726 0.69,1.782 -13.758,5.338 z"
             style="fill:#006ab2;fill-opacity:1;fill-rule:nonzero;stroke:none"
             id="path30"
             inkscape:connector-curvature="0" /></g><g
           id="g32"
           transform="translate(401.9067,162.4229)"><path
             d="m 0,0 -1.223,0.173 -5.292,0.079 -0.284,-1.992 0.787,-0.117 c 0.802,-0.113 1.069,-0.337 1.146,-0.458 0.084,-0.198 0.122,-0.291 -0.224,-2.701 l -3.978,-27.821 0.759,-0.106 5.44,0.004 0.288,2.015 -0.859,0.047 c -0.255,0.037 -0.701,0.15 -0.813,0.491 -0.059,0.194 -0.052,0.264 0.271,2.514 z"
             style="fill:#006ab2;fill-opacity:1;fill-rule:nonzero;stroke:none"
             id="path34"
             inkscape:connector-curvature="0" /></g><g
           id="g36"
           transform="translate(424.2354,146.1895)"><path
             d="M 0,0 0.07,12.286 1.144,12.28 c 0.91,0 1.664,0.026 2.33,0.048 0.475,0.015 0.886,0.028 1.244,0.028 h 0.066 c 2.319,-0.013 4.209,-0.543 5.463,-1.533 1.266,-0.999 1.9,-2.427 1.889,-4.256 C 12.12,3.44 11.126,2.095 7.309,0.065 4.651,-0.033 3.882,-0.053 3.012,-0.053 H 2.245 C 1.692,-0.047 0.946,-0.043 0,0 m 8.911,-15.793 c -1.21,-0.107 -1.91,-0.126 -2.767,-0.126 l -0.784,0.004 c -1.795,0.011 -3.539,0.122 -5.449,0.259 l 0.075,13.078 3.519,-0.018 c 7.089,-0.043 10.103,-1.983 10.075,-6.489 -0.017,-2.948 -1.326,-4.832 -4.669,-6.708 m 1.184,14.944 c 4.25,1.95 6.413,4.584 6.428,7.832 0.029,5.124 -4.073,7.965 -11.551,8.013 H 4.76 c -1.537,0 -3.077,-0.1 -4.991,-0.319 l -6.174,-0.628 -0.012,-1.899 0.858,0.071 c 0.575,0 0.968,-0.118 1.113,-0.305 l 0.035,-0.062 c 0.101,-0.164 0.15,-0.251 0.139,-2.638 l -0.162,-27.544 0.27,-0.019 c 2.825,-0.225 4.284,-0.277 5.987,-0.281 h 0.248 c 10.138,0 15.974,3.647 16.01,10.003 0.027,4.145 -2.661,6.754 -7.986,7.776"
             style="fill:#006ab2;fill-opacity:1;fill-rule:nonzero;stroke:none"
             id="path38"
             inkscape:connector-curvature="0" /></g><g
           id="g40"
           transform="translate(466.8643,137.5078)"><path
             d="m 0,0 -3.655,12.591 8.241,2.389 c 0.658,0.194 1.498,0.522 2.646,1.033 l 3.087,1.444 -0.526,1.833 -14.195,-4.12 -3.354,11.559 8.622,2.498 c 0.781,0.23 1.497,0.478 2.648,1.026 l 3.089,1.448 -0.532,1.833 -14.175,-4.114 -6.418,-2.658 0.581,-2.002 0.315,0.164 c 0.17,0.094 0.311,0.136 0.477,0.183 0.55,0.159 0.994,0.136 1.151,0.023 l 0.053,-0.047 c 0.144,-0.131 0.218,-0.201 0.882,-2.492 L -3.405,-3.787 9.811,0.052 c 0.794,0.229 1.752,0.637 2.59,1.008 l 3.091,1.449 -0.535,1.833 z"
             style="fill:#006ab2;fill-opacity:1;fill-rule:nonzero;stroke:none"
             id="path42"
             inkscape:connector-curvature="0" /></g><g
           id="g44"
           transform="translate(501.5156,170.002)"><path
             d="M 0,0 C -1.288,-0.839 -2.035,-1.232 -3.384,-1.946 L -6.65,-3.67 -12.543,7.496 c 0.613,0.342 1.106,0.623 1.534,0.861 0.797,0.451 1.369,0.774 2.087,1.154 2.091,1.106 3.918,1.664 5.438,1.664 2.062,0 3.589,-0.999 4.673,-3.047 C 2.6,5.447 2.198,2.714 0,0 m 19.219,-7.767 c -1.017,-0.54 -1.68,-0.474 -3,0.22 l -10.91,5.446 c -1.612,0.803 -2.413,1.125 -3.232,1.239 3.849,3.497 4.897,7.664 2.862,11.521 -2.471,4.683 -7.149,5.321 -13.812,1.805 -1.622,-0.853 -3.523,-1.963 -5.081,-2.962 l -5.227,-3.333 0.994,-1.88 0.757,0.403 c 0.503,0.262 0.797,0.319 0.957,0.319 0.07,0 0.125,-0.014 0.188,-0.047 0.185,-0.116 0.273,-0.164 1.407,-2.32 l 12.951,-24.549 0.688,0.36 4.46,3.053 -0.94,1.785 -0.807,-0.426 c -0.349,-0.187 -0.682,-0.211 -0.911,-0.043 -0.146,0.109 -0.148,0.114 -1.193,2.091 l -4.837,9.169 1.855,0.976 c 1.157,0.613 1.832,0.838 2.488,0.838 0.907,0 1.879,-0.44 3.648,-1.284 l 13.47,-7.068 0.816,0.436 4.106,2.869 -0.938,1.78 z"
             style="fill:#006ab2;fill-opacity:1;fill-rule:nonzero;stroke:none"
             id="path46"
             inkscape:connector-curvature="0" /></g><g
           id="g48"
           transform="translate(541.8936,203.3223)"><path
             d="m 0,0 -3.287,-4.231 1.391,-1.449 0.58,0.552 c 0.43,0.418 0.848,0.691 1.108,0.661 0.21,-0.06 0.305,-0.085 1.992,-1.838 l 5.205,-5.415 c -1.468,-3.343 -3.086,-5.766 -5.238,-7.829 -2.672,-2.577 -5.739,-3.932 -8.863,-3.932 h -0.003 c -3.534,0 -7.055,1.71 -10.177,4.955 -6.238,6.486 -6.061,14.735 0.455,21.002 2.316,2.226 4.519,3.505 6.045,3.505 0.553,0 0.998,-0.168 1.324,-0.511 l 0.215,-0.224 1.719,1.917 -3.399,3.534 -2.188,-1.813 c -2.516,-2.076 -3.562,-2.935 -4.641,-3.976 -4.466,-4.298 -7.04,-9.083 -7.445,-13.847 -0.402,-4.769 1.376,-9.363 5.142,-13.277 3.336,-3.465 7.255,-5.292 11.339,-5.292 4.025,0 8.007,1.785 11.512,5.16 3.13,3.009 4.958,5.814 8.152,12.493 L 11.025,-9.672 0.892,0.862 Z"
             style="fill:#006ab2;fill-opacity:1;fill-rule:nonzero;stroke:none"
             id="path50"
             inkscape:connector-curvature="0" /></g><g
           id="g52"
           transform="translate(375.9058,378.8018)"><path
             d="m 0,0 -0.923,-1.031 c -0.325,-0.356 -0.639,-0.732 -0.964,-1.112 l -0.654,-0.768 2.076,-1.84 c 0.308,-0.272 0.62,-0.539 0.926,-0.811 0.707,-0.614 1.439,-1.256 2.141,-1.903 0.407,-0.38 0.674,-0.614 1.009,-0.614 0.342,0 0.634,0.267 0.975,0.609 1.209,1.219 2.477,2.517 3.992,4.095 0.98,1.018 1.954,2.034 2.93,3.056 0.742,0.778 1.485,1.556 2.231,2.335 0.494,0.515 0.994,1.026 1.49,1.537 l 0.46,0.468 C 18.08,1.931 38.3,-17.36 40.319,-19.474 L 1.6,-55.99 1.767,-56.196 c 0.127,-0.155 0.241,-0.301 0.354,-0.446 0.243,-0.314 0.474,-0.608 0.733,-0.881 0.971,-0.994 1.845,-1.866 2.681,-2.653 0.085,-0.08 0.17,-0.164 0.254,-0.248 0.424,-0.417 0.902,-0.896 1.635,-1.092 l 0.164,-0.047 37.05,37.926 c 0.029,-0.019 0.05,-0.042 0.073,-0.065 0.57,-0.582 1.142,-1.163 1.711,-1.749 1.118,-1.148 2.241,-2.297 3.37,-3.431 1.199,-1.2 2.402,-2.39 3.607,-3.581 0.807,-0.792 1.607,-1.585 2.407,-2.382 0.692,-0.689 1.378,-1.373 2.065,-2.062 0.989,-0.993 1.977,-1.988 2.979,-2.972 1.766,-1.739 3.541,-3.469 5.318,-5.198 l 1.84,-1.796 c 0.258,-0.252 0.52,-0.501 0.78,-0.754 0.42,-0.399 0.836,-0.797 1.242,-1.205 0.852,-0.853 1.698,-1.702 2.547,-2.555 0.982,-0.989 1.968,-1.978 2.956,-2.962 1.654,-1.65 3.313,-3.282 4.978,-4.912 0.613,-0.596 1.276,-1.233 1.998,-1.829 0.257,-0.211 0.462,-0.337 0.694,-0.337 0.27,0 0.483,0.178 0.729,0.407 1.178,1.125 2.333,2.227 3.481,3.366 0.36,0.356 0.685,0.745 1,1.125 l 0.216,0.258 c 0.1,0.122 0.186,0.263 0.271,0.403 0.036,0.061 0.073,0.122 0.113,0.182 l 0.129,0.198 -0.392,0.379 c -0.105,0.109 -0.207,0.207 -0.309,0.3 l -9.395,8.644 c -8.347,7.687 -16.698,15.375 -25.051,23.053 -0.65,0.595 -1.327,1.181 -1.986,1.744 -0.37,0.319 -0.74,0.633 -1.106,0.956 -0.426,0.375 -0.848,0.75 -1.286,1.139 l -0.441,0.395 c 2.58,2.662 5.14,5.334 7.701,8.001 4.797,4.996 9.757,10.169 14.723,15.185 0.144,-0.118 0.27,-0.225 0.395,-0.333 L 73.1,3 c 1.349,-1.186 2.694,-2.377 4.034,-3.572 0.904,-0.802 1.765,-1.407 2.642,-1.846 0.623,-0.315 1.235,-0.629 1.826,-0.971 0.784,-0.455 1.564,-0.917 2.344,-1.376 0.744,-0.441 1.491,-0.876 2.238,-1.312 1.668,-0.966 3.345,-1.923 5.021,-2.874 0.023,-0.009 0.042,-0.028 0.063,-0.042 0.09,-0.07 0.227,-0.174 0.418,-0.174 0.147,0 0.287,0.062 0.416,0.183 l 0.16,0.151 -0.096,0.191 c -0.05,0.099 -0.097,0.197 -0.147,0.295 -0.104,0.221 -0.212,0.451 -0.349,0.666 l -0.072,0.122 c -0.701,1.144 -1.43,2.326 -2.171,3.474 -0.644,1 -1.296,1.995 -1.947,2.988 -0.807,1.238 -1.612,2.466 -2.411,3.708 -0.362,0.567 -0.707,1.144 -1.051,1.721 -0.271,0.459 -0.549,0.918 -0.832,1.373 -0.313,0.497 -0.599,0.862 -0.89,1.162 -0.823,0.835 -1.661,1.654 -2.494,2.475 -0.457,0.45 -0.915,0.905 -1.372,1.355 -0.548,0.548 -1.096,1.092 -1.642,1.645 -0.558,0.563 -1.121,1.12 -1.683,1.683 -2.592,2.569 -5.188,5.133 -7.783,7.701 -0.812,0.802 -1.625,1.609 -2.447,2.4 -0.344,0.333 -0.586,0.511 -0.887,0.511 -0.318,0 -0.59,-0.216 -0.907,-0.496 L 61.502,22.749 C 60.784,22.116 60.067,21.488 59.35,20.85 59.029,20.564 58.709,20.273 58.387,19.974 l -0.64,-0.586 0.186,-0.212 C 61.408,15.249 64.834,11.372 68.277,7.481 68.104,7.298 67.933,7.12 67.766,6.942 67.287,6.431 66.833,5.953 66.353,5.494 59.995,-0.614 53.631,-6.72 47.266,-12.822 l -2.123,-2.035 c -0.079,-0.075 -0.16,-0.141 -0.247,-0.211 -8.151,7.2 -16.823,14.867 -25.464,22.573 1.898,1.748 3.835,3.473 5.709,5.146 2.142,1.913 4.357,3.886 6.506,5.883 l 0.199,0.188 -5.123,6.159 -0.214,-0.131 c -0.105,-0.066 -0.203,-0.127 -0.295,-0.183 -0.196,-0.117 -0.37,-0.22 -0.529,-0.338 l -0.399,-0.295 c -0.549,-0.403 -1.113,-0.815 -1.645,-1.261 l -0.663,-0.548 c -2.002,-1.664 -4.076,-3.39 -6.08,-5.119 -1.25,-1.083 -2.459,-2.255 -3.627,-3.384 L 13.054,13.416 C 11.131,11.555 9.419,9.877 7.827,8.278 6.065,6.511 4.633,5.04 3.325,3.646 2.198,2.447 1.08,1.205 0,0"
             style="fill:#006ab2;fill-opacity:1;fill-rule:nonzero;stroke:none"
             id="path54"
             inkscape:connector-curvature="0" /></g><g
           id="g56"
           transform="translate(282.8394,230.9502)"><path
             d="m 0,0 c -1.955,0 -3.543,-1.589 -3.543,-3.543 0,-1.954 1.588,-3.543 3.543,-3.543 1.956,0 3.544,1.589 3.544,3.543 C 3.544,-1.589 1.956,0 0,0"
             style="fill:#006ab2;fill-opacity:1;fill-rule:nonzero;stroke:none"
             id="path58"
             inkscape:connector-curvature="0" /></g><g
           id="g60"
           transform="translate(560.5977,230.9502)"><path
             d="m 0,0 c -1.955,0 -3.544,-1.589 -3.544,-3.543 0,-1.954 1.589,-3.543 3.544,-3.543 1.954,0 3.547,1.589 3.547,3.543 C 3.547,-1.589 1.954,0 0,0"
             style="fill:#006ab2;fill-opacity:1;fill-rule:nonzero;stroke:none"
             id="path62"
             inkscape:connector-curvature="0" /></g><g
           id="g64"
           transform="translate(285.3281,271.8965)"><path
             d="m 0,0 -1.996,-0.399 0.241,-0.83 c 0.087,-0.43 0.017,-0.763 -0.194,-0.927 -0.164,-0.117 -0.23,-0.137 -2.464,-0.582 l -24.634,-4.911 -1.423,7.128 c -0.129,0.657 -0.338,1.242 -0.596,1.988 -0.08,0.225 -0.163,0.465 -0.25,0.722 l -1.125,3.216 -1.878,-0.376 4.923,-24.656 c 0.229,-1.153 0.325,-1.631 0.747,-2.724 l 1.229,-3.186 1.864,0.374 -2.631,13.21 29.877,5.962 0.287,0.055 -0.158,0.771 z"
             style="fill:#006ab2;fill-opacity:1;fill-rule:nonzero;stroke:none"
             id="path66"
             inkscape:connector-curvature="0" /></g><g
           id="g68"
           transform="translate(278.5181,362.0791)"><path
             d="M 0,0 C -0.268,-0.591 -0.598,-1.388 -0.933,-2.185 -1.31,-3.089 -1.699,-4.022 -1.993,-4.65 -2.199,-5.096 -2.534,-5.822 -3.005,-6.746 l -11.15,5.17 0.334,0.719 c 0.433,0.937 0.771,1.738 1.038,2.385 0.197,0.469 0.364,0.872 0.523,1.214 1.476,3.188 3.504,4.87 5.855,4.87 0.796,0 1.624,-0.196 2.463,-0.586 C -1.029,5.677 0.96,2.128 0,0 m -0.668,-7.829 1.481,3.198 c 2.267,4.889 4.58,7.162 7.283,7.162 0.874,0 1.792,-0.225 2.804,-0.698 3.333,-1.542 4.599,-3.774 3.989,-7.022 -0.241,-1.289 -0.641,-2.133 -1.106,-3.108 L 13.54,-8.812 c -0.722,-1.557 -1.35,-2.706 -2.304,-4.449 l -0.038,-0.065 z m -15.764,1.103 c 0.241,0.525 0.511,0.834 0.736,0.885 l 0.071,0.01 c 0.032,0 0.062,0.005 0.092,0.005 0.198,0 0.75,-0.231 2.368,-0.981 l 24.99,-11.582 0.13,0.234 c 1.374,2.466 2.025,3.779 2.742,5.33 4.33,9.342 3.474,16.252 -2.346,18.947 C 11.287,6.619 10.23,6.867 9.218,6.867 6.611,6.867 4.23,5.302 1.955,2.086 1.947,6.759 0.453,9.82 -2.499,11.189 c -1.054,0.492 -2.111,0.736 -3.14,0.736 -3.448,0 -6.539,-2.737 -8.942,-7.922 -0.672,-1.448 -1.251,-2.953 -1.875,-4.866 l -1.991,-5.873 1.722,-0.797 z"
             style="fill:#006ab2;fill-opacity:1;fill-rule:nonzero;stroke:none"
             id="path70"
             inkscape:connector-curvature="0" /></g><g
           id="g72"
           transform="translate(280.6914,391.5518)"><path
             d="m 0,0 c 0.088,0.173 0.177,0.286 0.285,0.422 0.356,0.445 0.687,0.675 0.928,0.68 L 1.281,1.092 C 1.483,1.064 1.575,1.05 3.435,-0.45 l 21.152,-17.065 0.225,-0.183 8.639,10.714 c 0.521,0.641 1.074,1.528 1.55,2.315 l 1.704,2.953 -1.486,1.2 -9.781,-12.121 -10.202,8.23 5.384,6.676 c 0.426,0.529 0.946,1.298 1.583,2.362 L 23.91,7.584 22.425,8.779 13.145,-2.719 3.78,4.833 9.417,11.822 c 0.51,0.628 0.951,1.242 1.584,2.357 l 1.701,2.954 -1.484,1.2 -9.264,-11.489 -3.74,-5.855 1.623,-1.308 z"
             style="fill:#006ab2;fill-opacity:1;fill-rule:nonzero;stroke:none"
             id="path74"
             inkscape:connector-curvature="0" /></g><g
           id="g76"
           transform="translate(311.5132,424.4907)"><path
             d="m 0,0 c 0.539,0.45 0.971,0.815 1.348,1.129 0.698,0.596 1.202,1.018 1.84,1.524 2.285,1.819 4.328,2.742 6.068,2.742 1.581,0 2.93,-0.726 4.119,-2.222 1.885,-2.366 2.003,-5.128 0.345,-8.208 -1.131,-1.082 -1.802,-1.616 -3.012,-2.577 L 7.866,-9.877 Z m -4.28,-3.665 c 0.57,0.454 0.874,0.501 0.978,0.501 0.028,0 0.051,-0.004 0.101,-0.024 0.201,-0.074 0.292,-0.107 1.809,-2.01 l 17.112,-21.492 0.18,-0.23 0.607,0.487 3.815,3.83 -1.256,1.575 -0.717,-0.567 c -0.305,-0.244 -0.611,-0.338 -0.886,-0.206 -0.164,0.079 -0.211,0.131 -1.596,1.874 l -6.419,8.063 1.642,1.308 c 1.285,1.026 1.955,1.336 2.865,1.336 0.771,0 1.746,-0.239 3.246,-0.637 l 14.403,-4.397 0.144,-0.043 0.728,0.577 3.501,3.58 -1.255,1.576 -0.672,-0.53 c -0.883,-0.708 -1.577,-0.774 -2.99,-0.342 l -11.733,3.328 c -1.603,0.45 -2.499,0.662 -3.406,0.614 3.132,4.148 3.385,8.442 0.671,11.85 C 13.296,10.496 8.572,10.251 2.686,5.564 1.242,4.416 -0.417,2.976 -1.76,1.711 L -6.271,-2.536 -4.95,-4.2 Z"
             style="fill:#006ab2;fill-opacity:1;fill-rule:nonzero;stroke:none"
             id="path78"
             inkscape:connector-curvature="0" /></g><g
           id="g80"
           transform="translate(360.856,422.8545)"><path
             d="m 0,0 c 2.089,0 4.283,0.395 6.518,1.172 4.095,1.434 6.926,3.221 12.614,7.969 l 0.155,0.127 -4.824,13.794 -1.169,-0.407 -4.755,-2.48 0.665,-1.898 0.755,0.263 c 0.635,0.219 1.181,0.201 1.282,0.135 0.167,-0.135 0.241,-0.201 1.046,-2.498 L 14.766,9.089 C 12.038,6.661 9.558,5.138 6.739,4.148 5.046,3.559 3.382,3.258 1.797,3.258 c -5.422,0 -9.773,3.553 -11.938,9.755 -1.453,4.157 -1.36,8.137 0.269,11.508 1.632,3.375 4.705,5.934 8.89,7.396 1.901,0.666 3.631,1.018 4.998,1.018 1.126,0 2.554,-0.235 2.948,-1.365 L 7.063,31.28 9.424,32.306 7.81,36.933 5.065,36.197 C 1.911,35.354 0.605,35.007 -0.804,34.514 -12.72,30.347 -17.853,21.268 -14.198,10.814 -11.795,3.938 -6.621,0 -0.002,0 Z"
             style="fill:#006ab2;fill-opacity:1;fill-rule:nonzero;stroke:none"
             id="path82"
             inkscape:connector-curvature="0" /></g><g
           id="g84"
           transform="translate(400.7891,449.2266)"><path
             d="m 0,0 2.346,7.116 1.3,3.801 c 0.42,1.36 0.587,1.913 0.95,3.384 0.362,-1.092 0.65,-1.677 1.38,-3.168 L 7.709,7.542 11.092,0.876 Z m -7.467,-16.523 4.305,0.965 0.08,1.983 -0.551,-0.047 c -0.049,-0.005 -0.096,-0.009 -0.14,-0.009 -0.446,0 -0.497,0.183 -0.512,0.357 -0.021,0.295 0.034,0.486 0.341,1.452 l 2.851,8.892 13.552,1.074 6.359,-12.586 0.971,0.08 4.217,0.961 -0.156,2.001 -0.687,-0.051 c -0.863,-0.066 -1.148,0.004 -2.176,2.062 L 6.818,18.323 6.733,18.492 5.934,18.431 2.47,17.691 -9.029,-15.056 l -0.043,-0.132 0.815,-1.396 z"
             style="fill:#006ab2;fill-opacity:1;fill-rule:nonzero;stroke:none"
             id="path86"
             inkscape:connector-curvature="0" /></g><g
           id="g88"
           transform="translate(435.6973,434.3301)"><path
             d="M 0,0 0.768,-0.15 6.183,-0.427 6.575,1.57 5.72,1.664 C 5.467,1.715 5.026,1.852 4.931,2.198 4.884,2.391 4.896,2.46 5.334,4.697 l 5.436,27.618 -1.211,0.24 -5.286,0.356 -0.388,-1.978 0.783,-0.155 c 0.797,-0.154 1.05,-0.399 1.12,-0.521 0.075,-0.201 0.108,-0.295 -0.361,-2.681 z"
             style="fill:#006ab2;fill-opacity:1;fill-rule:nonzero;stroke:none"
             id="path90"
             inkscape:connector-curvature="0" /></g><g
           id="g92"
           transform="translate(458.5957,459.2812)"><path
             d="m 0,0 -14.408,-9.168 12.179,-19.759 0.067,-0.107 1.169,-0.226 4.212,-0.192 0.388,1.974 -0.282,0.056 c -1.521,0.296 -1.716,0.333 -2.569,1.762 L -9.272,-9.652 8.753,1.495 8.957,1.623 8.345,3.197 1.886,4.041 1.347,2.128 1.653,2.067 C 2.095,1.979 2.064,1.824 2.049,1.734 1.981,1.393 1.427,0.923 0,0"
             style="fill:#006ab2;fill-opacity:1;fill-rule:nonzero;stroke:none"
             id="path94"
             inkscape:connector-curvature="0" /></g><g
           id="g96"
           transform="translate(495.4951,442.856)"><path
             d="m 0,0 -0.396,-3.984 -0.586,-7.453 -9.924,5.035 5.71,4.842 3.092,2.568 C -1.036,1.955 -0.601,2.344 0.472,3.403 0.213,2.292 0.152,1.637 0,0 m -21.718,-18.033 1.103,1.646 -0.494,0.253 c -0.212,0.103 -0.35,0.22 -0.403,0.333 -0.027,0.056 -0.05,0.14 0.029,0.3 0.133,0.262 0.279,0.394 1.024,1.045 l 7.093,6.122 12.124,-6.15 -1.137,-14.058 0.869,-0.436 4.102,-1.378 0.91,1.791 -0.612,0.309 c -0.766,0.389 -0.98,0.605 -0.784,2.897 L 4.464,5.677 4.48,5.869 3.766,6.23 0.422,7.407 -26.464,-14.55 l -0.1,-0.084 -0.035,-1.621 0.707,-0.357 z"
             style="fill:#006ab2;fill-opacity:1;fill-rule:nonzero;stroke:none"
             id="path98"
             inkscape:connector-curvature="0" /></g><g
           id="g100"
           transform="translate(511.4082,404.498)"><path
             d="m 0,0 19.312,20.349 c 1.739,-1.504 2.422,-2.165 3.086,-2.807 0.167,-0.161 0.331,-0.32 0.512,-0.494 7.963,-7.55 8.782,-14.769 2.441,-21.459 -3.08,-3.243 -6.443,-4.888 -10.001,-4.888 H 15.274 C 11.27,-9.22 7.941,-7.65 4.145,-4.05 3.877,-3.797 3.629,-3.562 3.385,-3.332 2.469,-2.47 1.602,-1.659 0,0 m 0.664,-4.584 c 5.426,-5.146 9.204,-7.345 13.473,-7.842 0.965,-0.145 1.92,-0.22 2.841,-0.22 h 10e-4 c 4.535,0 8.552,1.813 11.943,5.386 4.093,4.312 5.588,9.182 4.327,14.086 -0.935,3.689 -3.246,7.129 -7.491,11.16 -1.614,1.529 -2.731,2.452 -5.08,4.341 l -4.789,3.839 -1.43,-1.504 0.619,-0.592 c 0.507,-0.472 0.661,-0.815 0.628,-0.998 C 15.659,22.861 15.636,22.763 13.963,21 L -4.745,1.285 -4.934,1.088 -4.748,0.886 c 2.079,-2.231 3.347,-3.511 5.412,-5.47"
             style="fill:#006ab2;fill-opacity:1;fill-rule:nonzero;stroke:none"
             id="path102"
             inkscape:connector-curvature="0" /></g><g
           id="g104"
           transform="translate(559.1064,392.2734)"><path
             d="m 0,0 c -0.094,-0.178 -0.136,-0.258 -2.195,-1.476 l -23.656,-13.96 6.994,-11.852 c 0.336,-0.572 0.823,-1.243 1.624,-2.259 l 2.168,-2.635 1.645,0.971 -7.918,13.415 11.293,6.663 4.359,-7.39 c 0.342,-0.585 0.883,-1.335 1.652,-2.31 l 2.169,-2.635 1.645,0.971 -7.514,12.728 10.361,6.113 4.566,-7.73 c 0.408,-0.694 0.828,-1.322 1.65,-2.311 l 2.171,-2.634 1.642,0.975 L 5.151,-2.648 0.987,2.911 -0.812,1.852 -0.569,1.584 C -0.436,1.444 -0.36,1.317 -0.276,1.172 0.019,0.675 0.119,0.282 0.033,0.061 Z"
             style="fill:#006ab2;fill-opacity:1;fill-rule:nonzero;stroke:none"
             id="path106"
             inkscape:connector-curvature="0" /></g><g
           id="g108"
           transform="translate(591.5537,297.2041)"><path
             d="m 0,0 -2.017,0.098 -0.036,-0.801 c -0.038,-0.811 -0.239,-1.098 -0.352,-1.182 -0.206,-0.112 -0.332,-0.144 -2.704,-0.037 l -27.788,1.312 -0.289,0.015 -0.033,-0.788 0.521,-5.39 2.032,-0.094 -0.035,0.857 c 0.011,0.258 0.085,0.713 0.415,0.858 0.089,0.039 0.128,0.052 0.396,0.052 0.322,0 0.914,-0.029 2.133,-0.086 l 27.832,-1.31 0.288,-0.016 0.056,1.235 z"
             style="fill:#006ab2;fill-opacity:1;fill-rule:nonzero;stroke:none"
             id="path110"
             inkscape:connector-curvature="0" /></g><g
           id="g112"
           transform="translate(587.6416,273.3584)"><path
             d="m 0,0 c 0.005,-0.206 -0.023,-0.351 -0.055,-0.511 -0.104,-0.567 -0.288,-0.932 -0.496,-1.04 l -0.065,-0.024 c -0.082,-0.028 -0.115,-0.042 -0.222,-0.042 -0.279,0 -0.907,0.099 -2.401,0.38 l -26.714,5.015 -0.283,0.052 -2.539,-13.523 c -0.151,-0.801 -0.216,-1.805 -0.267,-2.77 l -0.104,-3.409 1.881,-0.356 2.872,15.31 12.885,-2.419 -1.583,-8.433 c -0.123,-0.661 -0.211,-1.555 -0.278,-2.827 l -0.101,-3.408 1.878,-0.35 2.724,14.521 11.824,-2.217 -1.656,-8.822 c -0.15,-0.803 -0.248,-1.557 -0.276,-2.831 l -0.103,-3.408 1.878,-0.352 2.717,14.503 0.524,6.929 -2.05,0.388 z"
             style="fill:#006ab2;fill-opacity:1;fill-rule:nonzero;stroke:none"
             id="path114"
             inkscape:connector-curvature="0" /></g><g
           id="g116"
           transform="translate(252.5142,288.4854)"><path
             d="M 0,0 C 0.014,0.521 0.134,0.914 0.326,1.072 0.459,1.148 0.532,1.19 1.296,1.19 1.687,1.19 2.239,1.176 3.033,1.154 L 18.234,0.688 c 4.056,-0.122 6.478,0.399 8.572,1.904 3.135,2.176 4.601,5.41 4.757,10.491 0.167,5.479 -1.224,9.646 -4.134,12.398 -2.177,2.081 -4.932,3.066 -8.932,3.188 l -20.344,0.619 -0.028,-1.064 0.438,-4.416 2.067,-0.061 v 0.295 c 0,1.378 0.11,1.425 1.12,1.425 0.123,0 0.256,0 0.402,-0.005 L 18.973,24.951 C 24,24.797 26.479,23.334 28.779,19.153 29.045,17.18 29.072,16.303 29.03,14.981 28.91,10.982 27.274,7.824 24.545,6.328 22.619,5.315 20.484,4.949 17.238,5.053 l -19.804,0.6 -0.031,-1.063 0.556,-5.443 2.011,-0.061 z"
             style="fill:#006ab2;fill-opacity:1;fill-rule:nonzero;stroke:none"
             id="path118"
             inkscape:connector-curvature="0" /></g><g
           id="g120"
           transform="translate(553.3906,332.5244)"><path
             d="m 0,0 1.33,-3.329 21.757,-3.979 0.276,-0.056 c 2.108,-0.417 4.455,-0.881 6.569,-1.139 -1.383,-0.572 -2.206,-0.947 -2.995,-1.36 l -2.649,-1.359 -19.659,-9.647 0.225,-1.018 1.492,-4.03 2.092,0.455 -0.271,0.356 c -0.029,0.046 -0.065,0.21 -0.086,0.314 -0.141,0.642 -0.106,0.83 1.667,1.725 l 26.366,13.134 -0.142,0.647 -1.127,2.818 -24.329,4.663 c -2.249,0.483 -3.729,0.591 -5.746,0.647 0.646,0.385 1.335,0.774 2.081,1.139 1.337,0.741 2.003,1.111 3.762,2.246 l 19.871,13.101 0.164,0.108 -0.138,0.628 -1.02,2.423 -32.714,2.091 -0.107,0.009 -0.843,-0.651 0.102,-0.755 1.43,-3.839 1.983,0.427 -0.061,0.281 c -0.085,0.38 -0.078,0.67 0.017,0.816 0.03,0.046 0.081,0.107 0.223,0.135 0.306,0.071 0.457,0.052 1.249,-0.004 l 18.105,-0.825 c 0.883,-0.037 1.892,-0.052 2.957,-0.07 0.807,-0.01 1.669,-0.024 2.6,-0.047 0.209,-0.024 0.422,-0.043 0.646,-0.061 -1.734,-0.83 -3.287,-1.687 -5.519,-3.155 z"
             style="fill:#006ab2;fill-opacity:1;fill-rule:nonzero;stroke:none"
             id="path122"
             inkscape:connector-curvature="0" /></g><g
           id="g124"
           transform="translate(463.8779,285.8838)"><path
             d="m 0,0 -1.36,0.285 -8.182,-5.478 -29.999,-28.069 v 33.121 c 4.01,0.61 6.813,2.799 6.935,5.414 l 0.003,23.611 h -4.806 V 10.115 c -0.016,-0.463 -0.03,-1.078 -0.03,-1.818 0,-2.063 -1.906,-3.736 -4.248,-3.736 -2.338,0 -4.244,1.673 -4.244,3.736 0,0.418 -0.008,0.816 -0.018,1.158 -0.007,0.262 -0.011,0.483 -0.011,0.65 v 18.779 h -4.806 V 5.559 l 0.002,-0.061 c -0.002,-0.018 -0.002,-0.037 -0.002,-0.051 0,-2.527 2.628,-4.762 6.422,-5.494 v -33.215 l -32.419,30.336 0.013,0.01 -3.289,3.113 -0.215,0.15 -0.055,0.056 -9.693,-10.312 3.49,-3.301 6.48,6.844 34.62,-32.391 -38.145,-35.69 3.241,-3.464 35.972,33.656 v -51.934 h 4.803 v 51.934 l 35.972,-33.656 3.241,3.464 -38.142,35.69 32.463,30.386 z"
             style="fill:#006ab2;fill-opacity:1;fill-rule:nonzero;stroke:none"
             id="path126"
             inkscape:connector-curvature="0" /></g></g></g></g></svg>