<?xml version="1.0" encoding="UTF-8" standalone="no"?>
<!-- Created with Inkscape (http://www.inkscape.org/) -->

<svg
   xmlns:dc="http://purl.org/dc/elements/1.1/"
   xmlns:cc="http://creativecommons.org/ns#"
   xmlns:rdf="http://www.w3.org/1999/02/22-rdf-syntax-ns#"
   xmlns:svg="http://www.w3.org/2000/svg"
   xmlns="http://www.w3.org/2000/svg"
   xmlns:sodipodi="http://sodipodi.sourceforge.net/DTD/sodipodi-0.dtd"
   xmlns:inkscape="http://www.inkscape.org/namespaces/inkscape"
   width="14.679211mm"
   height="14.593873mm"
   viewBox="0 0 14.679211 14.593873"
   version="1.1"
   id="svg844"
   inkscape:version="0.92.2 5c3e80d, 2017-08-06"
   sodipodi:docname="tuf_logo.svg">
  <defs
     id="defs838" />
  <sodipodi:namedview
     id="base"
     pagecolor="#ffffff"
     bordercolor="#666666"
     borderopacity="1.0"
     inkscape:pageopacity="0.0"
     inkscape:pageshadow="2"
     inkscape:zoom="0.35"
     inkscape:cx="-740.82976"
     inkscape:cy="7.5793494"
     inkscape:document-units="mm"
     inkscape:current-layer="layer1"
     showgrid="false"
     fit-margin-top="0"
     fit-margin-left="0"
     fit-margin-right="0"
     fit-margin-bottom="0"
     inkscape:window-width="1920"
     inkscape:window-height="1013"
     inkscape:window-x="0"
     inkscape:window-y="0"
     inkscape:window-maximized="1" />
  <metadata
     id="metadata841">
    <rdf:RDF>
      <cc:Work
         rdf:about="">
        <dc:format>image/svg+xml</dc:format>
        <dc:type
           rdf:resource="http://purl.org/dc/dcmitype/StillImage" />
        <dc:title></dc:title>
      </cc:Work>
    </rdf:RDF>
  </metadata>
  <g
     inkscape:label="Layer 1"
     inkscape:groupmode="layer"
     id="layer1"
     transform="translate(-152.16597,-136.24483)">
    <path
       inkscape:connector-curvature="0"
       id="path865"
       d="m 159.56141,150.83603 c -0.007,-7.9e-4 -0.0332,-0.003 -0.0581,-0.005 l -0.0452,-0.003 0.003,-0.64463 0.003,-0.64465 -0.0116,-0.0103 c -0.009,-0.008 -0.0183,-0.0102 -0.0471,-0.01 l -0.0355,5.3e-4 7e-5,-0.0212 c 6e-5,-0.0117 0.001,-0.0294 0.003,-0.0394 l 0.003,-0.0182 0.19809,-0.0198 c 0.18322,-0.0183 0.20629,-0.0196 0.30725,-0.017 0.14772,0.004 0.23188,0.0222 0.31776,0.0694 0.0448,0.0246 0.10185,0.0823 0.1224,0.12374 0.0479,0.0966 0.0413,0.21966 -0.0165,0.30669 -0.037,0.0557 -0.10993,0.11588 -0.18834,0.15542 l -0.0386,0.0195 0.0445,0.0118 c 0.21188,0.0564 0.30502,0.16388 0.2964,0.34204 -0.005,0.093 -0.0334,0.16197 -0.0954,0.22769 -0.0882,0.0935 -0.22275,0.14884 -0.41702,0.17156 -0.0578,0.007 -0.30126,0.01 -0.34612,0.005 z m 0.46875,-0.11713 c 0.0248,-0.009 0.0794,-0.0465 0.11197,-0.0772 0.0564,-0.0532 0.083,-0.11095 0.0875,-0.18981 0.01,-0.17694 -0.0864,-0.26823 -0.30876,-0.29234 -0.0275,-0.003 -0.1011,-0.005 -0.16354,-0.005 h -0.11351 v 0.28034 0.28034 l 0.027,0.003 c 0.0822,0.009 0.33472,0.01 0.3593,0.001 z m -0.036,-0.69571 c 0.10914,-0.0638 0.15138,-0.11106 0.16762,-0.18767 0.0212,-0.10001 -0.002,-0.19275 -0.0617,-0.24638 -0.0699,-0.0628 -0.15257,-0.0815 -0.33586,-0.0758 l -0.11399,0.004 -0.002,0.26064 c -0.001,0.14337 -0.001,0.2627 10e-5,0.26519 0.001,0.003 0.0711,0.004 0.1576,0.002 l 0.15516,-0.002 0.0334,-0.0195 z m -1.69279,0.72452 c 0.001,-0.005 0.0437,-0.29827 0.094,-0.6518 l 0.0914,-0.64278 -0.0109,-0.0109 c -0.007,-0.007 -0.0232,-0.0131 -0.0434,-0.0168 -0.0179,-0.003 -0.0324,-0.008 -0.0323,-0.0108 9e-5,-0.003 0.002,-0.0217 0.004,-0.0423 l 0.004,-0.0374 0.10634,0.003 c 0.1348,0.004 0.17072,0.007 0.17072,0.0146 0,0.003 -0.0406,0.28997 -0.0901,0.63686 -0.0496,0.34691 -0.0901,0.63958 -0.0901,0.65041 0,0.0176 0.002,0.0205 0.0179,0.0272 0.01,0.004 0.0263,0.007 0.0366,0.007 0.0135,0 0.018,0.002 0.0161,0.007 -10e-4,0.004 -0.004,0.0223 -0.006,0.0412 l -0.004,0.0344 h -0.13367 c -0.12482,0 -0.13349,-5.3e-4 -0.13114,-0.009 z m 3.02995,-0.17544 c -0.001,-0.002 -0.0801,-0.27197 -0.17529,-0.60003 -0.0952,-0.32807 -0.17647,-0.60446 -0.18054,-0.6142 -0.0107,-0.0256 -0.0261,-0.031 -0.0601,-0.0211 -0.0152,0.004 -0.03,0.008 -0.0328,0.008 -0.003,-2.3e-4 -0.0101,-0.0177 -0.0163,-0.0389 l -0.0111,-0.0385 0.0163,-0.007 c 0.009,-0.004 0.0705,-0.0291 0.13676,-0.0565 0.10867,-0.0449 0.15001,-0.0584 0.42077,-0.13705 0.16515,-0.048 0.30219,-0.0873 0.30453,-0.0873 0.002,0 0.009,0.0168 0.0145,0.0373 l 0.0102,0.0373 -0.0747,0.0353 c -0.11047,0.0521 -0.1293,0.0587 -0.33998,0.11936 -0.10624,0.0306 -0.19474,0.0569 -0.19669,0.0586 -0.005,0.004 0.13711,0.49141 0.14398,0.4937 0.003,0.001 0.13779,-0.0365 0.29935,-0.0834 0.16156,-0.0469 0.29693,-0.0853 0.30084,-0.0853 0.006,0 0.0242,0.0503 0.0242,0.0682 0,0.006 -0.0942,0.0526 -0.17254,0.0855 -0.017,0.007 -0.11898,0.0389 -0.22663,0.0705 -0.10765,0.0316 -0.19543,0.0596 -0.19507,0.0622 0.002,0.0128 0.15291,0.53051 0.15573,0.53355 0.002,0.002 0.14235,-0.0369 0.31232,-0.0864 0.16997,-0.0495 0.31367,-0.0911 0.31934,-0.0926 0.009,-0.002 0.0117,0.002 0.021,0.0358 l 0.0107,0.0384 -0.0829,0.0383 c -0.11694,0.054 -0.12572,0.057 -0.41506,0.14053 -0.14306,0.0413 -0.27106,0.0783 -0.28446,0.0822 -0.0134,0.004 -0.0253,0.005 -0.0265,0.004 z m -3.96918,-0.0739 c -0.13727,-0.0314 -0.17563,-0.0442 -0.45241,-0.15162 -0.15769,-0.0612 -0.28758,-0.11209 -0.28866,-0.11313 -0.001,-0.001 0.0798,-0.21232 0.1797,-0.46949 0.26833,-0.69076 0.27808,-0.71637 0.27808,-0.73013 0,-0.0168 -0.0167,-0.0315 -0.0472,-0.0417 -0.0137,-0.005 -0.0249,-0.01 -0.0249,-0.0117 1e-5,-0.002 0.006,-0.0199 0.0142,-0.0399 l 0.0142,-0.0365 0.14673,0.0395 c 0.1371,0.0369 0.16572,0.0469 0.43644,0.15201 0.15935,0.0619 0.28973,0.11526 0.28973,0.11862 0,0.007 -0.0206,0.0595 -0.0257,0.0655 -0.002,0.002 -0.0507,-0.007 -0.10858,-0.0199 -0.097,-0.0219 -0.1208,-0.0298 -0.30301,-0.10053 -0.10878,-0.0422 -0.20033,-0.0767 -0.20345,-0.0766 -0.005,7e-5 -0.18855,0.46416 -0.1885,0.47663 1e-5,0.003 0.13106,0.0557 0.29123,0.11778 0.16018,0.0621 0.29224,0.11452 0.29347,0.11652 0.002,0.003 -0.021,0.0659 -0.0259,0.071 -0.002,0.003 -0.1441,-0.0289 -0.19466,-0.0432 -0.0249,-0.007 -0.12649,-0.0443 -0.22569,-0.0827 -0.0992,-0.0384 -0.18129,-0.069 -0.18242,-0.0678 -0.007,0.007 -0.20283,0.52157 -0.19957,0.52438 0.002,0.002 0.14148,0.0566 0.30947,0.12146 0.29956,0.11571 0.3054,0.11824 0.30298,0.13087 -0.001,0.007 -0.007,0.0239 -0.013,0.0373 -0.012,0.028 -0.0102,0.0276 -0.0727,0.0134 z m 5.22528,-1.09718 c -0.16147,-0.30638 -0.29998,-0.56593 -0.30779,-0.57681 -0.0172,-0.024 -0.0256,-0.0245 -0.0657,-0.004 l -0.0307,0.0155 -0.0201,-0.04 -0.0201,-0.04 0.15523,-0.0984 c 0.24488,-0.15526 0.36166,-0.21602 0.47714,-0.24821 0.0421,-0.0117 0.059,-0.0137 0.12104,-0.0138 0.0624,-10e-5 0.0768,0.001 0.10695,0.0119 0.0705,0.0243 0.13099,0.0793 0.17036,0.1547 0.0803,0.15387 0.0485,0.32045 -0.0885,0.46318 -0.0172,0.0179 -0.0284,0.0333 -0.025,0.0344 0.003,0.001 0.0186,0.006 0.0339,0.0107 0.0152,0.005 0.15895,0.0738 0.31934,0.15321 0.28139,0.13937 0.29272,0.14445 0.32254,0.14481 0.0246,2.7e-4 0.036,-0.003 0.0559,-0.0137 0.0138,-0.008 0.0272,-0.0128 0.0297,-0.0112 0.007,0.004 0.0363,0.0639 0.0344,0.0694 -0.002,0.007 -0.18519,0.1336 -0.19781,0.13676 -0.008,0.002 -0.0837,-0.0352 -0.27322,-0.13489 -0.40294,-0.21187 -0.42576,-0.22213 -0.48241,-0.217 -0.0253,0.002 -0.0443,0.009 -0.0986,0.0372 -0.037,0.0189 -0.069,0.036 -0.0711,0.038 -0.002,0.002 0.045,0.0962 0.10465,0.20942 0.13502,0.25608 0.14363,0.27187 0.15085,0.27653 0.0103,0.007 0.0289,0.004 0.0496,-0.006 0.0111,-0.006 0.0214,-0.0103 0.0229,-0.0103 0.003,0 0.0403,0.0726 0.0379,0.0745 -0.0128,0.0104 -0.21109,0.14183 -0.21396,0.14178 -0.002,-6e-5 -0.13609,-0.25073 -0.29757,-0.5571 z m 0.2498,-0.30566 c 0.0411,-0.022 0.0868,-0.0476 0.10158,-0.0571 0.0546,-0.0349 0.10336,-0.12568 0.1121,-0.20876 0.0106,-0.10046 -0.0596,-0.23142 -0.1452,-0.27098 -0.0245,-0.0113 -0.039,-0.0141 -0.0814,-0.0158 -0.0592,-0.002 -0.10798,0.008 -0.17691,0.037 -0.0506,0.0213 -0.22328,0.11631 -0.2212,0.12164 8.2e-4,0.002 0.0579,0.11079 0.12692,0.24146 l 0.1254,0.23758 0.042,-0.0226 c 0.0231,-0.0124 0.0756,-0.0405 0.11667,-0.0625 z m -7.10295,0.73901 c -0.0523,-0.0313 -0.0999,-0.0609 -0.1059,-0.0659 l -0.0109,-0.009 0.0201,-0.32422 c 0.0214,-0.34575 0.0232,-0.45216 0.008,-0.48745 -0.014,-0.0325 -0.0472,-0.0642 -0.14629,-0.13924 -0.007,-0.006 -0.34166,0.42075 -0.34166,0.43587 0,0.006 0.0106,0.0202 0.0236,0.0326 l 0.0236,0.0226 -0.0249,0.0328 c -0.0227,0.0299 -0.0258,0.0322 -0.0352,0.0263 -0.006,-0.004 -0.0509,-0.0312 -0.10044,-0.0615 -0.0496,-0.0302 -0.0951,-0.059 -0.10125,-0.064 -0.0111,-0.009 -0.0103,-0.0101 0.34686,-0.46745 0.42589,-0.54536 0.43942,-0.56315 0.43942,-0.57764 0,-0.007 -0.0105,-0.0206 -0.029,-0.0371 l -0.029,-0.0259 0.0269,-0.0338 c 0.0161,-0.0202 0.0293,-0.0324 0.0329,-0.0303 0.0377,0.0219 0.28915,0.18962 0.34449,0.22983 0.16028,0.11644 0.24521,0.20369 0.28934,0.29726 0.0464,0.0984 0.0453,0.18191 -0.004,0.27527 -0.0292,0.0559 -0.0986,0.1263 -0.15151,0.15382 -0.0966,0.0502 -0.21992,0.0534 -0.34229,0.009 l -0.0401,-0.0146 0.003,0.0478 c 0.002,0.0263 -0.002,0.18429 -0.009,0.35111 -0.007,0.16681 -0.0102,0.31487 -0.008,0.32904 0.003,0.0228 0.008,0.0293 0.0363,0.0571 l 0.0325,0.0313 -0.0238,0.0315 c -0.0131,0.0173 -0.0251,0.0316 -0.0267,0.0318 -0.002,1.3e-4 -0.0456,-0.0253 -0.0979,-0.0566 z m 0.27651,-0.91351 c 0.10509,-0.0278 0.20035,-0.13688 0.20676,-0.23681 0.007,-0.10493 -0.0554,-0.19221 -0.23163,-0.32565 l -0.0911,-0.069 -0.0895,0.1146 c -0.0493,0.063 -0.12359,0.1582 -0.1652,0.21149 -0.0416,0.0533 -0.0762,0.0988 -0.0768,0.10114 -0.001,0.005 0.17758,0.14497 0.22906,0.1793 0.029,0.0193 0.0414,0.0241 0.0773,0.0299 0.0471,0.008 0.10064,0.006 0.14128,-0.005 z m 8.2085,-0.16009 c -0.0857,-0.0156 -0.18887,-0.0611 -0.27085,-0.11953 -0.0516,-0.0368 -0.14075,-0.12459 -0.18037,-0.17766 -0.10993,-0.14727 -0.15878,-0.29633 -0.15148,-0.46226 0.009,-0.20572 0.10791,-0.40646 0.29196,-0.5929 0.0475,-0.0481 0.2841,-0.25159 0.31409,-0.27012 0.005,-0.003 0.0256,0.0149 0.0778,0.0697 0.0591,0.0622 0.0696,0.0756 0.0647,0.0825 -0.003,0.005 -0.0191,0.0228 -0.0353,0.0406 l -0.0294,0.0324 -0.0158,-0.0133 c -0.0309,-0.026 -0.0759,-0.0232 -0.14229,0.009 -0.0569,0.0276 -0.10822,0.0671 -0.17731,0.13645 -0.13986,0.14038 -0.20582,0.28412 -0.20582,0.44853 0,0.15871 0.0658,0.30554 0.19797,0.44202 0.0722,0.0745 0.1283,0.1168 0.20635,0.15547 0.09,0.0446 0.13046,0.0541 0.2292,0.0539 0.0675,-1e-4 0.0862,-0.002 0.12094,-0.0119 0.18065,-0.0517 0.33802,-0.19795 0.45095,-0.41895 0.0169,-0.0331 0.0307,-0.0634 0.0307,-0.0675 0,-0.008 -0.28859,-0.30978 -0.30135,-0.31467 -0.0107,-0.004 -0.0246,0.003 -0.0549,0.0282 l -0.0241,0.0199 -0.0284,-0.0295 c -0.016,-0.0167 -0.0266,-0.0318 -0.0244,-0.0347 0.0494,-0.0656 0.14693,-0.18854 0.15668,-0.19763 0.007,-0.007 0.0151,-0.0113 0.0177,-0.0103 0.0114,0.005 0.42874,0.44341 0.42874,0.45087 0,0.0122 -0.10533,0.2157 -0.14849,0.28681 -0.0568,0.0937 -0.10414,0.15362 -0.18337,0.23249 -0.0827,0.0823 -0.14533,0.12918 -0.22698,0.16979 -0.1017,0.0506 -0.18242,0.07 -0.28782,0.0692 -0.0343,-2.5e-4 -0.079,-0.003 -0.0993,-0.007 z m -10.32436,-0.5876 c -0.0499,-0.0465 -0.0919,-0.0875 -0.0933,-0.0913 -0.002,-0.004 0.18118,-0.16309 0.484,-0.42067 0.26763,-0.22764 0.48999,-0.41908 0.49414,-0.4254 0.0105,-0.016 0.005,-0.0335 -0.0196,-0.0599 l -0.0205,-0.0222 0.0249,-0.0221 c 0.0137,-0.0121 0.0286,-0.0242 0.0331,-0.0268 0.007,-0.004 0.0309,0.0167 0.11641,0.0975 0.0957,0.0905 0.13004,0.128 0.29774,0.32554 0.10425,0.12279 0.19557,0.22987 0.20293,0.23794 l 0.0134,0.0147 -0.028,0.0253 c -0.0154,0.0139 -0.0301,0.0252 -0.0325,0.0252 -0.006,0 -0.14433,-0.12118 -0.17433,-0.15275 -0.013,-0.0137 -0.0777,-0.0887 -0.14362,-0.16659 -0.066,-0.0779 -0.12169,-0.14361 -0.12385,-0.14601 -0.003,-0.004 -0.39137,0.32113 -0.39515,0.33077 -7.1e-4,0.002 0.0824,0.10181 0.18479,0.22218 0.10235,0.12037 0.1941,0.22861 0.2039,0.24053 l 0.0178,0.0217 -0.0186,0.0163 c -0.0439,0.0386 -0.0422,0.0379 -0.0588,0.0244 -0.0864,-0.0704 -0.15569,-0.14157 -0.2774,-0.28494 -0.0721,-0.085 -0.13414,-0.15663 -0.13779,-0.15922 -0.005,-0.003 -0.0562,0.0375 -0.18111,0.14375 -0.25001,0.21275 -0.24916,0.21196 -0.24916,0.22951 0,0.0102 0.006,0.0207 0.0189,0.0337 l 0.0189,0.0189 -0.0253,0.0226 c -0.0139,0.0124 -0.0289,0.0247 -0.0332,0.0272 -0.006,0.004 -0.0287,-0.0147 -0.0986,-0.0798 z m 5.55321,-1.1096 c 0,-0.64314 -0.002,-1.11252 -0.005,-1.11252 -0.002,0 -0.35055,0.32372 -0.77342,0.71939 l -0.76886,0.7194 -0.0481,-0.0511 c -0.0265,-0.0281 -0.0571,-0.0616 -0.0682,-0.0744 l -0.02,-0.0233 0.80041,-0.74932 c 0.44022,-0.41213 0.80843,-0.75646 0.81824,-0.76517 l 0.0178,-0.0158 -0.74375,-0.6959 -0.74375,-0.69591 -0.0889,0.0937 c -0.0489,0.0515 -0.1117,0.11754 -0.13957,0.14671 l -0.0507,0.053 -0.0719,-0.0682 c -0.0396,-0.0375 -0.0719,-0.07 -0.0719,-0.0723 0,-0.002 0.0927,-0.10261 0.20591,-0.22292 l 0.20589,-0.21873 0.064,0.0603 c 0.27119,0.25573 1.47288,1.37925 1.47666,1.38061 0.003,0.001 0.005,-0.27444 0.005,-0.70966 0,-0.5647 -0.001,-0.71175 -0.006,-0.71318 -0.0571,-0.016 -0.11781,-0.0387 -0.1438,-0.0537 -0.0443,-0.0257 -0.0916,-0.0736 -0.11022,-0.11158 l -0.0151,-0.0309 -10e-4,-0.52149 -0.001,-0.5215 h 0.10313 0.10313 v 0.44974 c 0,0.51198 -0.002,0.48288 0.0416,0.53093 0.0899,0.0983 0.25786,0.0755 0.31295,-0.0425 l 0.0136,-0.0291 0.002,-0.45454 0.002,-0.45454 h 0.10002 0.10002 l -0.001,0.52407 -0.001,0.52407 -0.0149,0.0295 c -0.037,0.073 -0.12636,0.13165 -0.23871,0.15665 l -0.0425,0.009 v 0.70997 c 0,0.42729 0.002,0.70929 0.005,0.70826 0.003,-0.001 0.29289,-0.27146 0.64511,-0.60115 l 0.64039,-0.59943 0.17533,-0.11711 0.17533,-0.11711 0.0288,0.005 0.0288,0.005 -0.12874,0.17948 -0.12875,0.17948 -0.69713,0.65248 -0.69713,0.65249 0.0178,0.0159 c 0.01,0.009 0.37801,0.35305 0.81822,0.76519 l 0.80038,0.74934 -0.0128,0.0152 c -0.007,0.008 -0.0378,0.0417 -0.0684,0.0742 l -0.0556,0.059 -0.77192,-0.72225 -0.77192,-0.72225 -10e-4,1.11553 -0.001,1.11553 h -0.10043 -0.10042 z m -5.90516,-0.35992 c -0.043,-0.0114 -0.0793,-0.0412 -0.10105,-0.083 -0.0163,-0.0314 -0.0169,-0.0898 -0.001,-0.12388 0.0446,-0.0974 0.16918,-0.1209 0.244,-0.0461 0.0558,0.0558 0.0583,0.14731 0.006,0.20737 -0.0319,0.0364 -0.1011,0.0578 -0.14718,0.0456 z m 11.91332,-0.002 c -0.0642,-0.0211 -0.10483,-0.0762 -0.10535,-0.1429 -3.2e-4,-0.0396 0.0121,-0.0723 0.0387,-0.10191 0.0698,-0.0776 0.19552,-0.0609 0.24602,0.0327 0.0163,0.0302 0.016,0.1041 -4.8e-4,0.13507 -0.0259,0.0486 -0.0722,0.0786 -0.12645,0.0818 -0.0179,0.001 -0.0409,-0.001 -0.0525,-0.005 z m -12.98373,-1.0544 -0.0349,-0.0929 -0.11222,-0.56068 -0.11222,-0.56067 0.0391,-0.008 c 0.0215,-0.004 0.0394,-0.007 0.0397,-0.007 3.5e-4,5.3e-4 0.0174,0.0483 0.0379,0.10641 0.0333,0.0942 0.041,0.12411 0.0721,0.27706 0.0192,0.0943 0.0357,0.17232 0.0368,0.17336 0.001,0.001 0.26129,-0.05 0.57829,-0.11345 0.42377,-0.0848 0.57902,-0.11774 0.58641,-0.12442 0.01,-0.009 0.0105,-0.0308 0.001,-0.0611 -0.003,-0.01 0,-0.0115 0.037,-0.0188 0.0222,-0.004 0.041,-0.007 0.0419,-0.006 0.004,0.003 0.0782,0.2174 0.0811,0.23262 0.003,0.013 0.001,0.0168 -0.006,0.019 -0.005,0.002 -0.29573,0.0599 -0.64559,0.12975 -0.34985,0.0698 -0.63659,0.12744 -0.63719,0.12802 -6.1e-4,5.3e-4 0.0229,0.12261 0.0523,0.2712 0.0293,0.14859 0.0542,0.27584 0.0552,0.28278 0.002,0.0116 -6.3e-4,0.0131 -0.0291,0.0191 -0.017,0.004 -0.0344,0.007 -0.0388,0.007 -0.006,1.6e-4 -0.0182,-0.0274 -0.0427,-0.0927 z m 14.08726,-0.15075 -0.0296,-0.005 1.6e-4,-0.0288 c 9e-5,-0.0158 0.002,-0.0694 0.005,-0.11892 0.004,-0.0782 0.01,-0.11704 0.0432,-0.29355 0.0211,-0.11188 0.0375,-0.20438 0.0363,-0.20555 -0.001,-0.001 -0.11515,-0.0233 -0.25327,-0.0493 -0.2178,-0.0409 -0.25155,-0.0461 -0.25425,-0.0391 -0.002,0.004 -0.0281,0.14245 -0.0587,0.30675 -0.0306,0.16431 -0.0572,0.30056 -0.0591,0.30279 -0.002,0.002 -0.0202,10e-4 -0.0404,-0.002 l -0.0369,-0.006 1.3e-4,-0.0237 c 7e-5,-0.013 0.002,-0.0654 0.005,-0.11642 0.004,-0.0807 0.01,-0.11825 0.0419,-0.28979 0.0203,-0.10839 0.036,-0.1981 0.0347,-0.19934 -0.002,-0.003 -0.55199,-0.10621 -0.55306,-0.10437 -3.7e-4,5.3e-4 -0.0282,0.14879 -0.0618,0.32921 -0.0336,0.18041 -0.0625,0.32728 -0.064,0.32637 -0.002,-7.9e-4 -0.0191,-0.004 -0.0389,-0.008 l -0.0361,-0.006 0.001,-0.068 c 7.7e-4,-0.0374 0.004,-0.0935 0.006,-0.12469 0.005,-0.0539 0.11143,-0.64005 0.11808,-0.64721 0.002,-0.002 0.27898,0.0485 0.61608,0.11185 0.33711,0.0634 0.62241,0.11534 0.63401,0.11544 0.0275,2.2e-4 0.0369,-0.0105 0.0444,-0.0507 0.005,-0.0248 0.008,-0.0311 0.014,-0.0293 0.004,0.001 0.0218,0.005 0.0385,0.008 0.0168,0.003 0.0313,0.006 0.0324,0.007 0.001,0.001 -0.003,0.0666 -0.009,0.14552 -0.0105,0.13916 -0.0125,0.15293 -0.0674,0.44746 -0.0311,0.16714 -0.0578,0.30795 -0.0593,0.3129 -0.003,0.01 -0.006,0.01 -0.0496,0.002 z m -14.36819,-1.53478 c -0.006,-0.0167 -0.0292,-0.26031 -0.0252,-0.26438 0.002,-0.002 0.21072,0.003 0.4641,0.0106 0.48462,0.0148 0.51818,0.0144 0.60079,-0.006 0.0184,-0.004 0.0553,-0.0184 0.082,-0.0309 0.0414,-0.0194 0.0547,-0.029 0.0903,-0.0651 0.0884,-0.0899 0.1277,-0.21654 0.11934,-0.38458 -0.004,-0.089 -0.008,-0.10686 -0.0295,-0.14226 -0.0461,-0.0763 -0.10488,-0.1347 -0.16683,-0.16567 -0.0886,-0.0443 -0.10249,-0.0457 -0.58125,-0.0609 -0.478,-0.0151 -0.44114,-0.0177 -0.44114,0.0312 v 0.0282 h -0.0432 -0.0432 l -0.003,-0.0167 c -0.006,-0.0368 -0.0207,-0.20979 -0.0177,-0.21283 0.005,-0.005 0.8933,0.0227 0.95164,0.0293 0.13823,0.0157 0.23802,0.0616 0.31992,0.14734 0.10937,0.11446 0.15998,0.26572 0.15991,0.47785 -5e-5,0.14955 -0.0185,0.24156 -0.067,0.33424 -0.0532,0.10168 -0.15904,0.18561 -0.26971,0.21391 -0.0828,0.0212 -0.13336,0.0223 -0.50706,0.0111 -0.19219,-0.006 -0.37442,-0.0115 -0.40496,-0.0128 -0.0668,-0.003 -0.0899,2.5e-4 -0.0968,0.0131 -0.003,0.005 -0.007,0.0247 -0.008,0.0431 l -0.003,0.0335 h -0.038 c -0.0347,0 -0.0384,-0.001 -0.0422,-0.0116 z m 13.25568,-0.11062 c -0.0148,-0.002 -0.0198,-0.005 -0.0216,-0.0133 -0.006,-0.027 -0.022,-0.22498 -0.0197,-0.23731 0.003,-0.0136 0.003,-0.0136 0.0419,-0.0108 0.0216,0.002 0.31386,0.0157 0.64943,0.0313 0.443,0.0207 0.6134,0.027 0.62204,0.023 0.0154,-0.007 0.022,-0.0251 0.022,-0.0605 0,-0.0239 0.001,-0.028 0.008,-0.0254 0.005,0.002 0.0238,0.003 0.043,0.003 h 0.0348 l 0.006,0.0734 c 0.003,0.0404 0.008,0.10319 0.009,0.13962 l 0.003,0.0662 -0.0536,-0.003 c -0.0432,-0.003 -1.24312,-0.0595 -1.25736,-0.0595 -0.002,0 -0.009,0.005 -0.0144,0.0103 -0.008,0.008 -0.0103,0.0172 -0.0103,0.0386 v 0.0283 l -0.0219,-8e-4 c -0.012,-5.3e-4 -0.0306,-0.002 -0.0412,-0.003 z m 0.0109,-0.7109 c -0.0223,-0.0569 -0.0609,-0.16726 -0.0636,-0.18184 l -0.003,-0.0177 0.20501,-0.10017 c 0.11276,-0.0551 0.34641,-0.16995 0.51921,-0.25525 0.1728,-0.0853 0.3223,-0.15821 0.33221,-0.16205 0.01,-0.004 0.0199,-0.009 0.0222,-0.0105 0.002,-0.002 -0.0221,-0.008 -0.0541,-0.0124 -0.032,-0.005 -0.0988,-0.0167 -0.14835,-0.0262 -0.0496,-0.01 -0.2941,-0.0546 -0.54339,-0.10007 -0.24929,-0.0455 -0.45821,-0.0839 -0.46426,-0.0853 -0.009,-0.002 -0.0168,-0.0169 -0.0374,-0.0682 -0.0145,-0.0361 -0.0263,-0.0684 -0.0263,-0.0717 0,-0.006 0.85483,-0.56958 0.93912,-0.61914 0.025,-0.0147 0.0644,-0.0364 0.0876,-0.0483 l 0.0421,-0.0215 -0.0258,-0.004 c -0.0142,-0.002 -0.0643,-0.004 -0.11137,-0.004 -0.0471,-2.6e-4 -0.26265,-0.009 -0.47901,-0.0184 -0.21636,-0.01 -0.41373,-0.0186 -0.43861,-0.0193 -0.0516,-0.002 -0.0573,0.002 -0.0528,0.0331 0.003,0.0211 0.005,0.0197 -0.0451,0.0304 -0.018,0.004 -0.0315,0.005 -0.0342,0.002 -0.007,-0.007 -0.0572,-0.14611 -0.0617,-0.16984 -0.004,-0.0199 -0.003,-0.0215 0.0145,-0.034 l 0.0185,-0.0131 0.70203,0.045 c 0.38611,0.0247 0.70311,0.046 0.70444,0.0474 0.001,0.001 0.0131,0.0287 0.0262,0.0608 0.0155,0.0381 0.0222,0.0607 0.0192,0.0652 -0.004,0.006 -0.58576,0.39152 -0.84404,0.5594 -0.0481,0.0313 -0.12348,0.0765 -0.1674,0.10039 -0.0439,0.0239 -0.0829,0.0463 -0.0866,0.0498 -0.005,0.005 0.007,0.007 0.0618,0.01 0.0377,0.002 0.0929,0.008 0.12263,0.0131 0.17229,0.031 1.08544,0.20756 1.09177,0.21103 0.009,0.005 0.0568,0.12089 0.0568,0.13721 0,0.009 -0.0819,0.0517 -0.57301,0.29608 -0.31515,0.15683 -0.58517,0.29283 -0.60004,0.30219 -0.0249,0.0157 -0.027,0.0186 -0.027,0.0366 0,0.0107 0.003,0.0243 0.007,0.0301 0.007,0.0103 0.006,0.0109 -0.0323,0.0192 -0.0499,0.0107 -0.0465,0.0111 -0.053,-0.006 z m -7.58497,-0.44927 c -0.0247,-0.0112 -0.16131,-0.14215 -0.20328,-0.19481 l -0.0259,-0.0325 0.0121,-0.0129 c 0.007,-0.007 0.38015,-0.35987 0.82994,-0.78392 l 0.81779,-0.77098 -0.10692,-0.10574 c -0.10547,-0.10431 -0.32234,-0.31253 -0.6091,-0.58481 -0.25218,-0.23944 -0.33632,-0.31686 -0.34269,-0.31531 -0.003,8e-4 -0.0661,0.064 -0.13948,0.14051 -0.2402,0.25043 -0.34283,0.3553 -0.35665,0.36442 -0.0218,0.0144 -0.034,0.011 -0.0661,-0.0183 -0.0225,-0.0206 -0.14523,-0.12884 -0.21457,-0.18929 -0.005,-0.004 0.058,-0.0771 0.18689,-0.21849 0.16401,-0.17993 0.52648,-0.53811 0.66783,-0.65993 0.18683,-0.16101 0.34606,-0.28926 0.38261,-0.30816 l 0.0149,-0.008 0.10854,0.12987 0.10855,0.12989 -0.0401,0.0388 c -0.0221,0.0213 -0.12681,0.11635 -0.23279,0.21117 -0.10598,0.0948 -0.20756,0.18644 -0.22573,0.20362 l -0.033,0.0312 0.27247,0.24204 c 0.59933,0.53242 0.81727,0.72353 0.8234,0.72205 0.008,-0.002 0.96905,-0.92457 0.9874,-0.94807 l 0.0137,-0.0176 -0.22234,-0.25129 c -0.12229,-0.13821 -0.2231,-0.25326 -0.22403,-0.25566 -0.003,-0.009 0.23584,-0.21936 0.25453,-0.22405 0.007,-0.002 0.0186,-5.3e-4 0.0254,0.003 0.007,0.004 0.1883,0.18178 0.40355,0.39597 l 0.39136,0.38944 0.0427,0.0721 c 0.0235,0.0397 0.0939,0.15091 0.15657,0.24723 0.12422,0.19095 0.18201,0.28411 0.1928,0.3108 0.006,0.0146 0.006,0.0179 -2.9e-4,0.0218 -0.004,0.003 -0.0104,0.005 -0.0142,0.005 -0.007,1e-4 -0.16101,-0.0868 -0.34799,-0.1969 -0.0621,-0.0365 -0.13045,-0.0753 -0.15195,-0.0862 -0.0594,-0.0301 -0.0916,-0.0549 -0.22784,-0.17548 -0.069,-0.0611 -0.12809,-0.11263 -0.13136,-0.11459 -0.004,-0.002 -0.0744,0.0666 -0.18035,0.1754 -0.21594,0.22158 -0.7815,0.80988 -0.78351,0.81504 -8.2e-4,0.002 0.0258,0.0278 0.0592,0.057 0.0334,0.0293 0.0792,0.0696 0.10184,0.0896 0.0361,0.0318 1.15653,1.0616 1.43967,1.32314 0.0581,0.0536 0.1064,0.0996 0.10739,0.10221 0.004,0.0114 -0.0331,0.0549 -0.12718,0.1477 -0.0556,0.0549 -0.10651,0.10179 -0.11307,0.10428 -0.0191,0.007 -0.0344,-0.004 -0.13362,-0.0995 -0.14986,-0.14414 -0.78418,-0.77128 -1.17278,-1.1595 l -0.36021,-0.35986 -0.047,0.0482 c -0.43805,0.44905 -1.54361,1.58044 -1.5443,1.58035 -5e-4,-6e-5 -0.0108,-0.005 -0.0229,-0.0101 z m -4.55176,-1.39424 c -0.31445,-0.14598 -0.57931,-0.26664 -0.58858,-0.26815 -0.0216,-0.004 -0.0332,0.007 -0.048,0.0424 l -0.0113,0.0272 -0.0341,-0.0157 c -0.0187,-0.009 -0.0346,-0.0161 -0.0354,-0.0166 -0.003,-0.002 0.11359,-0.34179 0.13555,-0.39541 0.0714,-0.17429 0.1662,-0.30584 0.25992,-0.36062 0.10359,-0.0606 0.22452,-0.0561 0.32643,0.0121 0.0212,0.0142 0.0482,0.0378 0.06,0.0526 0.0494,0.0618 0.0804,0.15299 0.0858,0.25238 0.002,0.0306 0.005,0.0549 0.007,0.0541 0.002,-8e-4 0.0186,-0.02 0.0369,-0.0427 0.0813,-0.10039 0.17219,-0.15271 0.26696,-0.15372 0.0519,-5.3e-4 0.087,0.007 0.13824,0.0306 0.10438,0.0477 0.17027,0.12458 0.20273,0.23669 0.0105,0.0363 0.0118,0.0516 0.0116,0.1362 -2.4e-4,0.0855 -0.002,0.10162 -0.0146,0.1571 -0.029,0.12455 -0.0759,0.24477 -0.1547,0.39659 -0.049,0.0943 -0.0644,0.12119 -0.0691,0.12067 -0.002,-1.9e-4 -0.26063,-0.1198 -0.57507,-0.26578 z m 0.56416,0.0331 c 0.0235,-0.0382 0.11907,-0.2359 0.13105,-0.27122 0.0293,-0.0863 0.0291,-0.16549 -3.9e-4,-0.22617 -0.0283,-0.0582 -0.10585,-0.11955 -0.18849,-0.14917 -0.0302,-0.0108 -0.0472,-0.0135 -0.0866,-0.0137 -0.0444,-2.3e-4 -0.0521,0.001 -0.0824,0.0157 -0.0937,0.0447 -0.15988,0.13248 -0.25506,0.33829 -0.022,0.0475 -0.0384,0.088 -0.0365,0.0899 0.005,0.005 0.49416,0.23225 0.50148,0.23273 0.004,2.2e-4 0.0112,-0.007 0.0168,-0.0163 z m -0.59443,-0.31657 c 0.0128,-0.0275 0.0431,-0.0965 0.0674,-0.15324 0.0386,-0.0902 0.0442,-0.10708 0.0445,-0.13409 0.001,-0.11158 -0.11132,-0.24211 -0.23279,-0.27042 -0.0456,-0.0106 -0.1023,-0.005 -0.14196,0.0148 -0.0741,0.0365 -0.12734,0.10574 -0.18635,0.24239 -0.0203,0.0469 -0.0415,0.0959 -0.0473,0.10889 l -0.0104,0.0236 0.23509,0.10898 c 0.1293,0.0599 0.23812,0.10898 0.24182,0.10901 0.004,3e-5 0.0172,-0.0224 0.03,-0.05 z m 11.43558,-0.22941 c -0.0327,-0.0404 -0.0688,-0.0873 -0.0802,-0.10428 -0.0481,-0.0714 -0.31682,-0.53403 -0.31256,-0.53812 0.002,-0.002 0.24679,-0.1473 0.54282,-0.32194 0.29603,-0.17465 0.54345,-0.32243 0.54983,-0.32841 0.006,-0.006 0.0116,-0.0164 0.0116,-0.0231 0,-0.0142 -0.0124,-0.0406 -0.0263,-0.0558 -0.01,-0.0105 -0.009,-0.0107 0.0248,-0.0309 0.0189,-0.0112 0.0361,-0.0211 0.0382,-0.022 0.002,-7.9e-4 0.0427,0.0501 0.0903,0.11332 0.0773,0.10273 0.10274,0.14249 0.24023,0.37502 0.0846,0.14306 0.15818,0.26721 0.16352,0.27588 l 0.01,0.0158 -0.0342,0.02 -0.0342,0.02 -0.019,-0.0215 c -0.0825,-0.093 -0.12183,-0.14966 -0.22638,-0.32636 -0.0592,-0.10015 -0.10958,-0.18513 -0.11185,-0.18885 -0.003,-0.005 -0.0601,0.0263 -0.22282,0.12238 -0.12029,0.071 -0.22044,0.13089 -0.22257,0.13301 -0.002,0.002 0.0679,0.12528 0.1556,0.27366 0.0877,0.14839 0.15947,0.27141 0.15947,0.27339 0,0.002 -0.005,0.006 -0.0116,0.009 -0.006,0.003 -0.0213,0.0116 -0.0332,0.019 l -0.0216,0.0133 -0.0557,-0.0675 c -0.0757,-0.0918 -0.0858,-0.10693 -0.1978,-0.29659 l -0.0978,-0.16562 -0.17878,0.10554 c -0.0983,0.058 -0.20713,0.12215 -0.24179,0.14245 -0.0347,0.0203 -0.063,0.0385 -0.0631,0.0403 -6e-5,0.002 0.0753,0.13106 0.16732,0.28701 0.0921,0.15594 0.16739,0.2846 0.16739,0.28588 0,0.003 -0.0597,0.0392 -0.0653,0.0392 -0.003,0 -0.0315,-0.033 -0.0641,-0.0734 z m -10.66183,-0.90618 c -0.26728,-0.2156 -0.49488,-0.39793 -0.50579,-0.40514 -0.0184,-0.0122 -0.0208,-0.0126 -0.0335,-0.006 -0.008,0.004 -0.0216,0.0183 -0.0313,0.0314 l -0.0176,0.0237 -0.0326,-0.0261 c -0.0179,-0.0144 -0.0326,-0.0267 -0.0326,-0.0273 0,-7.9e-4 0.036,-0.0575 0.08,-0.12632 0.0717,-0.11215 0.10038,-0.15035 0.27638,-0.3687 0.108,-0.13398 0.19888,-0.24352 0.20197,-0.24343 0.003,9e-5 0.0177,0.0111 0.0325,0.0245 l 0.0268,0.0243 -0.0458,0.0784 c -0.062,0.10607 -0.0618,0.10579 -0.20754,0.2867 -0.12295,0.15259 -0.12782,0.15947 -0.11878,0.16794 0.0194,0.0181 0.38318,0.3095 0.38941,0.31189 0.004,0.001 0.0859,-0.0959 0.20397,-0.24222 l 0.19746,-0.2447 0.0136,0.01 c 0.007,0.005 0.0216,0.0167 0.0313,0.0249 l 0.0177,0.015 -0.0354,0.0613 c -0.0629,0.10899 -0.0851,0.14029 -0.2097,0.29511 -0.0674,0.0838 -0.12247,0.15471 -0.12231,0.15759 2.3e-4,0.004 0.4217,0.34702 0.43257,0.35177 0.002,8e-4 0.0969,-0.11452 0.2112,-0.25625 0.11433,-0.14172 0.20952,-0.25768 0.21151,-0.25768 0.002,0 0.0167,0.0106 0.0326,0.0236 l 0.029,0.0236 -0.01,0.0163 c -0.005,0.009 -0.0244,0.0418 -0.0422,0.073 -0.0565,0.099 -0.0406,0.078 -0.33587,0.44405 l -0.12135,0.15047 z m 9.95688,-0.38595 c -0.2364,-0.0272 -0.40889,-0.13771 -0.73838,-0.47322 l -0.10633,-0.10827 0.4251,-0.44778 c 0.23381,-0.24627 0.43314,-0.45739 0.44296,-0.46914 0.01,-0.0118 0.0179,-0.0259 0.0179,-0.0315 0,-0.006 -0.0116,-0.0224 -0.0258,-0.0374 l -0.0258,-0.0273 0.0297,-0.032 0.0297,-0.032 0.14164,0.1142 c 0.19235,0.15505 0.21893,0.17772 0.29568,0.25213 0.22473,0.21786 0.32373,0.40382 0.32357,0.60783 -6e-5,0.0998 -0.0191,0.17532 -0.0685,0.27211 -0.0375,0.0736 -0.0843,0.13681 -0.14891,0.20166 -0.16679,0.16732 -0.36283,0.23701 -0.59242,0.21063 z m 0.12876,-0.14705 c 0.10416,-0.0207 0.21391,-0.0855 0.31165,-0.1841 0.25522,-0.25748 0.26134,-0.53263 0.0183,-0.82276 -0.0413,-0.0492 -0.14482,-0.15259 -0.22009,-0.21962 l -0.0421,-0.0375 -0.38232,0.40323 c -0.21028,0.22176 -0.39761,0.41908 -0.4163,0.43845 l -0.034,0.0352 0.085,0.0823 c 0.18924,0.18323 0.27896,0.24754 0.40095,0.28738 0.0926,0.0302 0.18504,0.036 0.27893,0.0174 z m -9.04445,-0.57724 c -0.21104,-0.26545 -0.39552,-0.49494 -0.40994,-0.50998 -0.0248,-0.0258 -0.0271,-0.0271 -0.041,-0.0217 -0.008,0.003 -0.0245,0.0136 -0.0364,0.0233 l -0.0215,0.0176 -0.0283,-0.035 -0.0283,-0.035 0.12693,-0.1189 c 0.28544,-0.26739 0.40482,-0.35011 0.54778,-0.37957 0.0525,-0.0108 0.0868,-0.0103 0.13498,0.002 0.0522,0.0133 0.0839,0.0312 0.12762,0.0716 0.0939,0.0869 0.13765,0.20746 0.11721,0.32286 -0.0116,0.0654 -0.0422,0.13909 -0.0826,0.1986 l -0.0197,0.029 0.0307,0.003 c 0.0393,0.004 0.057,0.009 0.38131,0.1012 0.31667,0.0899 0.31083,0.089 0.36209,0.0539 l 0.0335,-0.023 0.0252,0.0321 0.0252,0.0321 -0.0751,0.0774 c -0.0413,0.0426 -0.0813,0.0828 -0.0889,0.0893 l -0.0138,0.0119 -0.31347,-0.0957 c -0.1724,-0.0526 -0.33888,-0.1018 -0.36994,-0.10929 -0.0742,-0.0179 -0.11462,-0.0159 -0.15231,0.008 -0.0285,0.0177 -0.12254,0.0892 -0.12278,0.0933 -2.6e-4,0.005 0.31933,0.40423 0.33504,0.41872 0.0182,0.0168 0.0279,0.0155 0.0577,-0.008 0.0108,-0.009 0.0214,-0.0134 0.0235,-0.0109 0.0404,0.0478 0.0473,0.0587 0.0426,0.0674 -0.006,0.0119 -0.1738,0.17665 -0.17939,0.17652 -0.002,-5e-5 -0.17692,-0.21728 -0.38796,-0.48273 z m 0.13595,-0.32051 c 0.15261,-0.12142 0.16427,-0.13412 0.18818,-0.20509 0.0371,-0.11022 0.0154,-0.21425 -0.062,-0.29701 -0.0838,-0.0896 -0.17403,-0.10302 -0.29586,-0.0442 -0.0507,0.0245 -0.10149,0.0605 -0.1942,0.13775 -0.0704,0.0587 -0.0708,0.0591 -0.0618,0.0704 0.22254,0.28006 0.32745,0.41007 0.3309,0.41007 0.002,0 0.045,-0.0324 0.0948,-0.072 z m 7.48436,0.13418 c -0.0482,-0.0163 -0.0954,-0.0337 -0.10495,-0.0387 -0.0171,-0.009 -0.0173,-0.01 -0.0145,-0.0356 0.007,-0.0687 0.0464,-0.57516 0.0445,-0.57688 -0.001,-0.001 -0.11789,-0.0606 -0.25923,-0.1322 -0.22237,-0.11271 -0.25832,-0.12941 -0.26686,-0.12409 -0.0139,0.009 -0.31271,0.26637 -0.32986,0.28447 -0.0189,0.02 -0.0182,0.0331 0.003,0.0437 0.009,0.005 0.0176,0.009 0.0187,0.0103 0.002,0.002 -0.0406,0.069 -0.0441,0.069 -0.005,0 -0.17967,-0.0609 -0.19351,-0.0672 -0.0134,-0.006 -0.0142,-0.008 -0.0142,-0.0406 v -0.034 l 0.5675,-0.46346 c 0.31214,-0.2549 0.57299,-0.46776 0.57968,-0.47302 0.012,-0.009 0.013,-0.009 0.0879,0.017 0.0417,0.0146 0.0805,0.0294 0.0863,0.0328 0.0105,0.006 0.0105,0.006 -0.0425,0.69632 -0.0292,0.3796 -0.0521,0.70259 -0.0508,0.71776 0.003,0.0309 0.0111,0.0431 0.0403,0.0581 0.0106,0.005 0.0193,0.011 0.0193,0.0125 0,0.004 -0.0359,0.0745 -0.0374,0.074 -6.6e-4,-2.2e-4 -0.0406,-0.0138 -0.0888,-0.0301 z m -0.0495,-0.93396 c 0.0115,-0.14923 0.0383,-0.42514 0.045,-0.46483 l 0.004,-0.0206 -0.0459,0.0439 c -0.0252,0.0241 -0.10379,0.0924 -0.17461,0.15167 -0.20063,0.16796 -0.26618,0.22505 -0.26259,0.22863 0.006,0.006 0.41166,0.21173 0.41742,0.21184 0.004,7e-5 0.01,-0.0548 0.0171,-0.15055 z m -5.81958,0.51612 c -0.0965,-0.01 -0.19714,-0.0465 -0.27979,-0.10124 -0.0203,-0.0135 -0.0579,-0.0454 -0.0835,-0.071 -0.10008,-0.0999 -0.17356,-0.24384 -0.20916,-0.40958 -0.0157,-0.073 -0.0171,-0.22695 -0.003,-0.29254 0.0618,-0.2819 0.28682,-0.49634 0.64074,-0.61072 0.0601,-0.0194 0.32192,-0.0908 0.33307,-0.0908 0.004,0 0.0195,0.0365 0.0402,0.0966 l 0.0334,0.0966 -0.0492,0.0215 -0.0493,0.0215 -0.006,-0.0141 c -0.008,-0.0182 -0.0328,-0.0392 -0.0574,-0.0479 -0.0312,-0.011 -0.12377,-0.008 -0.18168,0.006 -0.21394,0.0514 -0.37655,0.16074 -0.4648,0.31248 -0.0258,0.0444 -0.0529,0.1151 -0.0638,0.16663 -0.0137,0.0647 -0.0124,0.18101 0.003,0.25238 0.0479,0.22611 0.17009,0.40301 0.33275,0.48177 0.14161,0.0686 0.30812,0.0635 0.48618,-0.0149 0.086,-0.0378 0.19809,-0.11085 0.25884,-0.16857 l 0.0239,-0.0227 -0.0657,-0.18543 c -0.0864,-0.24385 -0.0772,-0.2241 -0.10426,-0.22382 -0.0122,1.3e-4 -0.0314,0.004 -0.0428,0.008 -0.0113,0.004 -0.0221,0.007 -0.024,0.007 -0.002,4e-5 -0.009,-0.0173 -0.0164,-0.0385 l -0.013,-0.0386 0.0215,-0.0122 c 0.0913,-0.0517 0.22335,-0.11479 0.22879,-0.10935 0.001,10e-4 0.048,0.13365 0.10445,0.29472 0.0793,0.22633 0.10117,0.29417 0.0963,0.29854 -0.0572,0.0515 -0.20811,0.16653 -0.27926,0.21284 -0.19834,0.12908 -0.42608,0.19451 -0.61035,0.17535 z m 4.2406,-0.304 c -0.0288,-0.002 -0.0566,-0.006 -0.0618,-0.009 -0.009,-0.005 -0.52702,-0.84027 -0.52702,-0.84976 0,-0.002 0.14776,-0.0985 0.32835,-0.21347 0.18059,-0.11495 0.33832,-0.21758 0.35051,-0.22806 0.0247,-0.0212 0.0279,-0.0397 0.007,-0.0426 -0.006,-8e-4 -0.0116,-0.004 -0.0116,-0.007 0,-0.009 0.0166,-0.0678 0.0203,-0.0721 0.003,-0.003 0.27236,0.0292 0.27574,0.0333 6.8e-4,7.9e-4 0.006,0.0153 0.0126,0.0322 0.0109,0.0295 0.011,0.031 0.002,0.0376 -0.005,0.004 -0.1803,0.11257 -0.38922,0.24175 -0.20892,0.12918 -0.37985,0.23639 -0.37985,0.23823 0,0.005 0.42744,0.68788 0.44609,0.71313 0.0215,0.0291 0.0367,0.0385 0.0729,0.0452 0.0252,0.005 0.0317,0.008 0.0298,0.0141 -10e-4,0.004 -0.005,0.0226 -0.008,0.0403 l -0.006,0.0322 -0.0547,-8e-4 c -0.0301,-5.3e-4 -0.0783,-0.003 -0.10711,-0.005 z m -2.82852,-0.14222 -0.0168,-0.0292 0.24577,-0.70084 c 0.13517,-0.38547 0.24745,-0.7028 0.24952,-0.7052 0.005,-0.005 0.1283,-0.0327 0.15902,-0.0351 l 0.0226,-0.002 0.31604,0.61797 c 0.17382,0.33989 0.32195,0.6265 0.32917,0.63692 0.0163,0.0235 0.0365,0.0323 0.0665,0.0289 0.023,-0.003 0.0231,-0.003 0.0231,0.0135 0,0.009 0.001,0.0278 0.003,0.0421 l 0.003,0.026 -0.0976,0.022 c -0.0537,0.0121 -0.10393,0.0213 -0.11159,0.0203 -0.0129,-0.002 -0.0245,-0.0226 -0.14965,-0.26954 l -0.13573,-0.26783 -0.0172,0.001 c -0.1048,0.007 -0.56366,0.0441 -0.56501,0.0454 -0.003,0.003 -0.13286,0.40978 -0.13708,0.42896 -0.005,0.0224 0.004,0.0318 0.0288,0.0318 h 0.02 v 0.04 0.04 l -0.0991,0.0219 c -0.0545,0.0121 -0.10387,0.0219 -0.10965,0.0218 -0.007,-9e-5 -0.0156,-0.009 -0.0273,-0.0294 z m 0.6224,-0.69955 c 0.12323,-0.01 0.22456,-0.018 0.22517,-0.018 6.1e-4,-2e-5 -0.0496,-0.10143 -0.11165,-0.22538 -0.0962,-0.19222 -0.13524,-0.27379 -0.16316,-0.34095 -0.005,-0.0112 -0.007,-0.007 -0.0167,0.0335 -0.006,0.0253 -0.0381,0.12488 -0.0706,0.2212 -0.0325,0.0963 -0.0715,0.21393 -0.0867,0.26139 l -0.0276,0.0863 0.0136,-4e-5 c 0.007,-1e-5 0.11445,-0.008 0.23768,-0.018 z m 1.34242,0.66663 c -0.0754,-0.005 -0.0908,-0.007 -0.0908,-0.0168 0,-0.004 0.0545,-0.28351 0.12106,-0.62183 0.0666,-0.33833 0.1225,-0.62706 0.12426,-0.64164 0.003,-0.0247 0.002,-0.0271 -0.0107,-0.0356 -0.008,-0.005 -0.0259,-0.0118 -0.0406,-0.0152 -0.0301,-0.007 -0.0303,-0.007 -0.0188,-0.0627 l 0.006,-0.0279 0.0215,0.003 c 0.0118,0.001 0.063,0.005 0.11376,0.009 0.0508,0.003 0.10301,0.009 0.11611,0.0117 l 0.0238,0.006 -0.12494,0.63353 c -0.0687,0.34844 -0.12502,0.63954 -0.12512,0.64689 -2.5e-4,0.019 0.0163,0.0315 0.0452,0.0343 l 0.0248,0.002 -0.008,0.0406 -0.008,0.0406 -0.0518,-8e-4 c -0.0285,-5.2e-4 -0.0816,-0.003 -0.11808,-0.005 z"
       style="fill:#0063a7;stroke-width:0.0051506" />
  </g>
</svg>
